<?xml version="1.0" encoding="UTF-8" standalone="no"?>
<!-- Created with Inkscape (http://www.inkscape.org/) -->

<svg
   xmlns:dc="http://purl.org/dc/elements/1.1/"
   xmlns:cc="http://creativecommons.org/ns#"
   xmlns:rdf="http://www.w3.org/1999/02/22-rdf-syntax-ns#"
   xmlns:svg="http://www.w3.org/2000/svg"
   xmlns="http://www.w3.org/2000/svg"
   xmlns:xlink="http://www.w3.org/1999/xlink"
   xmlns:sodipodi="http://sodipodi.sourceforge.net/DTD/sodipodi-0.dtd"
   xmlns:inkscape="http://www.inkscape.org/namespaces/inkscape"
   width="210mm"
   height="297mm"
   viewBox="0 0 210 297"
   version="1.1"
   id="svg8"
   inkscape:version="0.92.2 (5c3e80d, 2017-08-06)"
   sodipodi:docname="shwoop app landing page assets.svg"
   inkscape:export-filename="C:\Users\OEM\Desktop\Firebase test server\shwoop logo v0.8.png"
   inkscape:export-xdpi="300"
   inkscape:export-ydpi="300">
  <defs
     id="defs2">
    <linearGradient
       id="linearGradient1345"
       inkscape:collect="always">
      <stop
         id="stop1341"
         offset="0"
         style="stop-color:#e00060;stop-opacity:1" />
      <stop
         id="stop1343"
         offset="1"
         style="stop-color:#5511aa;stop-opacity:1" />
    </linearGradient>
    <linearGradient
       id="linearGradient1638"
       inkscape:collect="always">
      <stop
         id="stop1634"
         offset="0"
         style="stop-color:#e00060;stop-opacity:1" />
      <stop
         id="stop1636"
         offset="1"
         style="stop-color:#5511aa;stop-opacity:1" />
    </linearGradient>
    <inkscape:perspective
       sodipodi:type="inkscape:persp3d"
       inkscape:vp_x="-95.396801 : -41.042162 : 1"
       inkscape:vp_y="-486.29503 : 873.79467 : 0"
       inkscape:vp_z="86.01435 : 58.026536 : 1"
       inkscape:persp3d-origin="18.33751 : -36.287286 : 1"
       id="perspective1063" />
    <linearGradient
       inkscape:collect="always"
       id="linearGradient1671">
      <stop
         style="stop-color:#030344;stop-opacity:0.94117647"
         offset="0"
         id="stop1667" />
      <stop
         style="stop-color:#5511aa;stop-opacity:1"
         offset="1"
         id="stop1669" />
    </linearGradient>
    <linearGradient
       id="linearGradient1621"
       inkscape:collect="always">
      <stop
         id="stop1617"
         offset="0"
         style="stop-color:#e00060;stop-opacity:1" />
      <stop
         id="stop1619"
         offset="1"
         style="stop-color:#5511aa;stop-opacity:1" />
    </linearGradient>
    <linearGradient
       inkscape:collect="always"
       id="linearGradient1443">
      <stop
         style="stop-color:#030344;stop-opacity:0.94117647"
         offset="0"
         id="stop1439" />
      <stop
         style="stop-color:#5511aa;stop-opacity:1"
         offset="1"
         id="stop1441" />
    </linearGradient>
    <linearGradient
       inkscape:collect="always"
       id="linearGradient976">
      <stop
         style="stop-color:#030344;stop-opacity:1;"
         offset="0"
         id="stop972" />
      <stop
         style="stop-color:#5511aa;stop-opacity:1"
         offset="1"
         id="stop974" />
    </linearGradient>
    <linearGradient
       inkscape:collect="always"
       id="linearGradient4609">
      <stop
         style="stop-color:#030344;stop-opacity:1;"
         offset="0"
         id="stop4605" />
      <stop
         style="stop-color:#5511aa;stop-opacity:1"
         offset="1"
         id="stop4607" />
    </linearGradient>
    <linearGradient
       inkscape:collect="always"
       xlink:href="#linearGradient4609"
       id="linearGradient4611"
       x1="434.28571"
       y1="846.29425"
       x2="434.28571"
       y2="673.23401"
       gradientUnits="userSpaceOnUse" />
    <linearGradient
       inkscape:collect="always"
       xlink:href="#linearGradient4609"
       id="linearGradient4708"
       gradientUnits="userSpaceOnUse"
       x1="434.28571"
       y1="846.29425"
       x2="434.28571"
       y2="673.23401" />
    <linearGradient
       inkscape:collect="always"
       xlink:href="#linearGradient976"
       id="linearGradient978"
       x1="103"
       y1="1368.3334"
       x2="103"
       y2="1187.5197"
       gradientUnits="userSpaceOnUse"
       gradientTransform="matrix(0.26458333,0,0,0.26458333,56.243983,53.076218)" />
    <linearGradient
       gradientTransform="matrix(0.26458333,0,0,0.26458333,106.17423,-0.75414343)"
       inkscape:collect="always"
       xlink:href="#linearGradient976"
       id="linearGradient978-0-4"
       x1="103"
       y1="1368.3334"
       x2="103"
       y2="1187.5197"
       gradientUnits="userSpaceOnUse" />
    <linearGradient
       inkscape:collect="always"
       xlink:href="#linearGradient1443"
       id="linearGradient1445"
       x1="319.61227"
       y1="1834.5763"
       x2="319.61227"
       y2="1665.5778"
       gradientUnits="userSpaceOnUse"
       gradientTransform="matrix(0.26458333,0,0,0.26458333,46.772167,-70.719517)" />
    <linearGradient
       inkscape:collect="always"
       xlink:href="#linearGradient1621"
       id="linearGradient1572"
       gradientUnits="userSpaceOnUse"
       gradientTransform="matrix(0.26458333,0,0,0.26458333,46.772167,-70.719517)"
       x1="115.96552"
       y1="1831.0406"
       x2="115.96552"
       y2="1665.5778" />
    <linearGradient
       inkscape:collect="always"
       xlink:href="#linearGradient1671"
       id="linearGradient918"
       gradientUnits="userSpaceOnUse"
       gradientTransform="rotate(-14.999999,-1857.1569,874.55671)"
       x1="115.96552"
       y1="1833.8024"
       x2="115.96552"
       y2="1680.5778" />
    <linearGradient
       inkscape:collect="always"
       xlink:href="#linearGradient1638"
       id="linearGradient1656"
       gradientUnits="userSpaceOnUse"
       gradientTransform="translate(-300.87027,-434.38794)"
       x1="200.42188"
       y1="745.20416"
       x2="200.42188"
       y2="691.04822" />
    <linearGradient
       inkscape:collect="always"
       xlink:href="#linearGradient1345"
       id="linearGradient1339"
       gradientUnits="userSpaceOnUse"
       x1="50.765739"
       y1="245.23027"
       x2="50.765739"
       y2="178.46667"
       gradientTransform="matrix(0.70752335,0,0,0.70752335,-3.7075705,-108.67189)" />
    <linearGradient
       inkscape:collect="always"
       xlink:href="#linearGradient1345"
       id="linearGradient945"
       gradientUnits="userSpaceOnUse"
       gradientTransform="matrix(0.70752335,0,0,0.70752335,-3.7075705,-32.083924)"
       x1="50.765739"
       y1="245.23027"
       x2="50.765739"
       y2="178.46667" />
    <linearGradient
       inkscape:collect="always"
       xlink:href="#linearGradient1345"
       id="linearGradient909"
       gradientUnits="userSpaceOnUse"
       gradientTransform="matrix(0.70752335,0,0,0.70752335,210.32186,-49.296081)"
       x1="50.765739"
       y1="245.23027"
       x2="50.765739"
       y2="178.46667" />
    <linearGradient
       inkscape:collect="always"
       xlink:href="#linearGradient1345"
       id="linearGradient913"
       gradientUnits="userSpaceOnUse"
       gradientTransform="matrix(1.2418547,0,0,1.2418547,235.92918,-194.81464)"
       x1="50.765739"
       y1="245.23027"
       x2="50.765739"
       y2="178.46667" />
    <linearGradient
       inkscape:collect="always"
       xlink:href="#linearGradient1345"
       id="linearGradient917"
       gradientUnits="userSpaceOnUse"
       gradientTransform="matrix(0.77635218,0,0,0.77635218,214.6551,11.513969)"
       x1="50.765739"
       y1="245.23027"
       x2="50.765739"
       y2="178.46667" />
  </defs>
  <sodipodi:namedview
     id="base"
     pagecolor="#ffffff"
     bordercolor="#666666"
     borderopacity="1.0"
     inkscape:pageopacity="0"
     inkscape:pageshadow="2"
     inkscape:zoom="2.8284272"
     inkscape:cx="962.53676"
     inkscape:cy="507.63729"
     inkscape:document-units="mm"
     inkscape:current-layer="layer1"
     showgrid="false"
     inkscape:window-width="1920"
     inkscape:window-height="1017"
     inkscape:window-x="1912"
     inkscape:window-y="-8"
     inkscape:window-maximized="1"
     showguides="false" />
  <metadata
     id="metadata5">
    <rdf:RDF>
      <cc:Work
         rdf:about="">
        <dc:format>image/svg+xml</dc:format>
        <dc:type
           rdf:resource="http://purl.org/dc/dcmitype/StillImage" />
        <dc:title></dc:title>
      </cc:Work>
    </rdf:RDF>
  </metadata>
  <g
     inkscape:label="Layer 1"
     inkscape:groupmode="layer"
     id="layer1">
    <rect
       style="fill:#5511aa;fill-opacity:1;stroke:none;stroke-width:3.85990644;stroke-miterlimit:4;stroke-dasharray:none;stroke-opacity:1"
       id="rect815"
       width="31.887882"
       height="31.887882"
       x="7.2193475"
       y="154.29758"
       rx="0"
       ry="15.943941" />
    <rect
       style="fill:#e00060;fill-opacity:1;stroke:none;stroke-width:3.85990644;stroke-miterlimit:4;stroke-dasharray:none;stroke-opacity:1"
       id="rect815-3"
       width="31.887882"
       height="31.887882"
       x="46.356247"
       y="154.29758"
       ry="15.943941" />
    <rect
       style="fill:#f5f5f5;fill-opacity:1;stroke:none;stroke-width:3.85990644;stroke-miterlimit:4;stroke-dasharray:none;stroke-opacity:1"
       id="rect815-3-3"
       width="31.887882"
       height="31.887882"
       x="124.63004"
       y="154.29758"
       ry="15.943941" />
    <text
       xml:space="preserve"
       style="font-style:normal;font-weight:normal;font-size:4.98117352px;line-height:1.25;font-family:sans-serif;letter-spacing:0px;word-spacing:0px;fill:#0f0f0f;fill-opacity:1;stroke:none;stroke-width:0.17860174"
       x="9.7253084"
       y="194.37036"
       id="text849"><tspan
         sodipodi:role="line"
         id="tspan847"
         x="9.7253084"
         y="194.37036"
         style="font-weight:bold;fill:#0f0f0f;fill-opacity:1;stroke-width:0.17860174">PRIMARY</tspan></text>
    <text
       xml:space="preserve"
       style="font-style:normal;font-weight:normal;font-size:4.98117352px;line-height:1.25;font-family:sans-serif;letter-spacing:0px;word-spacing:0px;fill:#0f0f0f;fill-opacity:1;stroke:none;stroke-width:0.17860174"
       x="52.92522"
       y="201.65472"
       id="text853"><tspan
         sodipodi:role="line"
         id="tspan851"
         x="52.92522"
         y="201.65472"
         style="fill:#0f0f0f;fill-opacity:1;stroke-width:0.17860174">e00060</tspan></text>
    <text
       xml:space="preserve"
       style="font-style:normal;font-weight:normal;font-size:4.98117352px;line-height:1.25;font-family:sans-serif;letter-spacing:0px;word-spacing:0px;fill:#0f0f0f;fill-opacity:1;stroke:none;stroke-width:0.17860174"
       x="44.884323"
       y="194.43967"
       id="text849-2"><tspan
         sodipodi:role="line"
         id="tspan847-6"
         x="44.884323"
         y="194.43967"
         style="font-weight:bold;fill:#0f0f0f;fill-opacity:1;stroke-width:0.17860174">SECONDARY</tspan></text>
    <text
       xml:space="preserve"
       style="font-style:normal;font-weight:normal;font-size:4.98117352px;line-height:1.25;font-family:sans-serif;letter-spacing:0px;word-spacing:0px;fill:#0f0f0f;fill-opacity:1;stroke:none;stroke-width:0.17860174"
       x="13.813861"
       y="201.6243"
       id="text849-2-2"><tspan
         sodipodi:role="line"
         id="tspan847-6-2"
         x="13.813861"
         y="201.6243"
         style="fill:#0f0f0f;fill-opacity:1;stroke-width:0.17860174">5511aa</tspan></text>
    <rect
       style="fill:#0f0f0f;fill-opacity:1;stroke:none;stroke-width:3.85990644;stroke-miterlimit:4;stroke-dasharray:none;stroke-opacity:1"
       id="rect815-3-3-6"
       width="31.887882"
       height="31.887882"
       x="163.76694"
       y="154.29758"
       ry="15.943941" />
    <text
       xml:space="preserve"
       style="font-style:normal;font-weight:normal;font-size:4.98117447px;line-height:1.25;font-family:sans-serif;letter-spacing:0px;word-spacing:0px;fill:#0f0f0f;fill-opacity:1;stroke:none;stroke-width:0.17860174"
       x="131.64168"
       y="194.42627"
       id="text849-2-5"><tspan
         sodipodi:role="line"
         id="tspan847-6-6"
         x="131.64168"
         y="194.42627"
         style="font-weight:bold;fill:#0f0f0f;fill-opacity:1;stroke-width:0.17860174">LIGHT</tspan></text>
    <text
       xml:space="preserve"
       style="font-style:normal;font-weight:normal;font-size:4.98117447px;line-height:1.25;font-family:sans-serif;letter-spacing:0px;word-spacing:0px;fill:#0f0f0f;fill-opacity:1;stroke:none;stroke-width:0.17860174"
       x="171.60431"
       y="194.90302"
       id="text849-2-5-1"><tspan
         sodipodi:role="line"
         id="tspan847-6-6-9"
         x="171.60431"
         y="194.90302"
         style="font-weight:bold;fill:#0f0f0f;fill-opacity:1;stroke-width:0.17860174">DARK</tspan></text>
    <text
       xml:space="preserve"
       style="font-style:normal;font-weight:normal;font-size:4.98117447px;line-height:1.25;font-family:sans-serif;letter-spacing:0px;word-spacing:0px;fill:#0f0f0f;fill-opacity:1;stroke:none;stroke-width:0.17860174"
       x="133.28586"
       y="201.71188"
       id="text853-7"><tspan
         sodipodi:role="line"
         id="tspan851-5"
         x="133.28586"
         y="201.71188"
         style="fill:#0f0f0f;fill-opacity:1;stroke-width:0.17860174">f5f5f5</tspan></text>
    <text
       xml:space="preserve"
       style="font-style:normal;font-weight:normal;font-size:4.98117447px;line-height:1.25;font-family:sans-serif;letter-spacing:0px;word-spacing:0px;fill:#0f0f0f;fill-opacity:1;stroke:none;stroke-width:0.17860174"
       x="172.0798"
       y="201.71188"
       id="text853-6"><tspan
         sodipodi:role="line"
         id="tspan851-0"
         x="172.0798"
         y="201.71188"
         style="fill:#0f0f0f;fill-opacity:1;stroke-width:0.17860174">0f0f0f</tspan></text>
    <rect
       style="fill:#030344;fill-opacity:1;stroke:none;stroke-width:3.85990644;stroke-miterlimit:4;stroke-dasharray:none;stroke-opacity:1"
       id="rect815-3-0"
       width="31.887882"
       height="31.887882"
       x="85.493134"
       y="154.29758"
       ry="15.943941" />
    <text
       xml:space="preserve"
       style="font-style:normal;font-weight:normal;font-size:4.98117352px;line-height:1.25;font-family:sans-serif;letter-spacing:0px;word-spacing:0px;fill:#0f0f0f;fill-opacity:1;stroke:none;stroke-width:0.17860174"
       x="91.878479"
       y="201.65594"
       id="text853-9"><tspan
         sodipodi:role="line"
         id="tspan851-1"
         x="91.878479"
         y="201.65594"
         style="fill:#0f0f0f;fill-opacity:1;stroke-width:0.17860174">030344</tspan></text>
    <text
       xml:space="preserve"
       style="font-style:normal;font-weight:normal;font-size:4.98117352px;line-height:1.25;font-family:sans-serif;letter-spacing:0px;word-spacing:0px;fill:#0f0f0f;fill-opacity:1;stroke:none;stroke-width:0.17860174"
       x="87.265785"
       y="194.37036"
       id="text849-2-59"><tspan
         sodipodi:role="line"
         id="tspan847-6-3"
         x="87.265785"
         y="194.37036"
         style="font-weight:bold;fill:#0f0f0f;fill-opacity:1;stroke-width:0.17860174">TERTIARY</tspan></text>
    <text
       id="text1964"
       y="180.58333"
       x="429.15414"
       style="font-style:normal;font-weight:normal;font-size:50.79999924px;line-height:20.64999962;font-family:sans-serif;letter-spacing:0px;word-spacing:0px;fill:#000000;fill-opacity:1;stroke:none;stroke-width:0.26458332"
       xml:space="preserve"><tspan
         style="stroke-width:0.26458332"
         y="719.68976"
         x="429.15414"
         id="tspan1962"
         sodipodi:role="line" /></text>
    <text
       xml:space="preserve"
       style="font-style:normal;font-weight:normal;font-size:7.76111126px;line-height:20.64999962;font-family:sans-serif;letter-spacing:0px;word-spacing:0px;fill:#000000;fill-opacity:1;stroke:none;stroke-width:0.26458332"
       x="532.34161"
       y="586.45416"
       id="text1168"><tspan
         sodipodi:role="line"
         id="tspan1166"
         x="532.34161"
         y="668.81763"
         style="stroke-width:0.26458332" /></text>
    <rect
       style="opacity:1;fill:#0f0f0f;fill-opacity:1;fill-rule:nonzero;stroke:none;stroke-width:0.56762141;stroke-linecap:round;stroke-linejoin:round;stroke-miterlimit:4;stroke-dasharray:none;stroke-dashoffset:0;stroke-opacity:1"
       id="rect1317"
       width="65.775406"
       height="65.775406"
       x="0.84444702"
       y="6.6897187"
       ry="0"
       inkscape:export-xdpi="349.91635"
       inkscape:export-ydpi="349.91635" />
    <path
       style="color:#000000;font-style:normal;font-variant:normal;font-weight:normal;font-stretch:normal;font-size:medium;line-height:normal;font-family:sans-serif;font-variant-ligatures:normal;font-variant-position:normal;font-variant-caps:normal;font-variant-numeric:normal;font-variant-alternates:normal;font-feature-settings:normal;text-indent:0;text-align:start;text-decoration:none;text-decoration-line:none;text-decoration-style:solid;text-decoration-color:#000000;letter-spacing:normal;word-spacing:normal;text-transform:none;writing-mode:lr-tb;direction:ltr;text-orientation:mixed;dominant-baseline:auto;baseline-shift:baseline;text-anchor:start;white-space:normal;shape-padding:0;clip-rule:nonzero;display:inline;overflow:visible;visibility:visible;opacity:1;isolation:auto;mix-blend-mode:normal;color-interpolation:sRGB;color-interpolation-filters:linearRGB;solid-color:#000000;solid-opacity:1;vector-effect:none;fill:url(#linearGradient1339);fill-opacity:1;fill-rule:nonzero;stroke:none;stroke-width:3.15524936;stroke-linecap:round;stroke-linejoin:round;stroke-miterlimit:4;stroke-dasharray:none;stroke-dashoffset:0;stroke-opacity:1;color-rendering:auto;image-rendering:auto;shape-rendering:auto;text-rendering:auto;enable-background:accumulate"
       d="m 31.129396,17.541138 c -0.185685,0 -0.335791,0.145345 -0.346442,0.328395 l 0.0029,10.960116 c 0.493557,-0.388676 0.930938,-0.736247 1.431251,-1.127792 0.799943,-0.615262 1.938597,-0.07702 1.932336,0.922646 l 0.0029,18.496669 c 0.0044,0.280388 0.0029,0.528379 0.0029,0.546536 0,0.385618 0.312983,0.698491 0.698586,0.698491 0.124909,0 0.242727,-0.0324 0.343662,-0.09081 0.906804,-0.521943 0.16771,-0.09692 1.148206,-0.663342 0.201338,-0.122506 0.327958,-0.240397 0.327958,-0.493251 V 22.677702 c -0.01456,-0.432489 -0.216743,-0.817001 -0.529456,-1.073633 -1.596261,-1.327274 -3.198527,-2.65818 -4.79719,-3.986524 -0.05948,-0.04718 -0.133995,-0.07596 -0.215783,-0.07596 z m 1.83542,10.737993 v 7.06e-4 c -0.08283,0 -0.158944,0.02992 -0.218679,0.07823 -1.470638,1.150871 -2.955961,2.325795 -4.211239,3.317277 -0.344979,0.265755 -0.567379,0.682759 -0.567379,1.151963 v 12.05749 c 0,0.517349 0.271506,0.969794 0.678601,1.227394 1.204308,0.691277 2.40411,1.394762 3.609998,2.08063 0.105383,0.06378 0.229047,0.100578 0.361273,0.100578 0.385625,-2.2e-5 0.698477,-0.312378 0.698477,-0.698055 V 28.634055 c 0,-0.0022 -0.0029,-0.0029 -0.0029,-0.0058 0,-0.04077 -0.0073,-0.07997 -0.01988,-0.116275 -0.04776,-0.135232 -0.176978,-0.232389 -0.328387,-0.232978 z m -9.332426,0.290784 c -0.18752,0 -0.357319,0.0748 -0.482068,0.195791 -4.154263,4.234411 -5.384355,10.558124 -3.11085,16.046918 2.291658,5.532505 7.69905,9.145976 13.68743,9.145976 5.988393,0 11.398116,-3.613471 13.689803,-9.145976 2.272263,-5.485744 1.038141,-11.798805 -3.10547,-16.03832 -0.125069,-0.123024 -0.296216,-0.199227 -0.485512,-0.199227 -0.382713,0 -0.693002,0.310165 -0.693002,0.692893 0,0.859445 0,1.7417 0,2.521636 0.02599,0.300686 0.10515,0.599188 0.252082,0.815203 2.177895,3.201636 2.636608,7.331808 1.116835,11.000835 -1.806706,4.361891 -6.052708,7.198708 -10.773986,7.198708 -4.721264,0 -8.966807,-2.836817 -10.773572,-7.198708 -1.520377,-3.670607 -1.049462,-7.795151 1.11974,-11.004919 0.16712,-0.247292 0.24842,-0.564344 0.251339,-0.817657 6.99e-4,-0.87801 6.99e-4,-1.768848 0,-2.520267 -2.2e-5,-0.382707 -0.310295,-0.692901 -0.693024,-0.692901 z m 14.22622,5.553284 h -7.07e-4 c -0.19097,0 -0.345234,0.153266 -0.347847,0.343661 v 11.36039 0.0029 c 5.1e-5,0 0,0.0022 0,0.0022 0,0.385618 0.31245,0.698069 0.698061,0.698069 0.147864,0 0.260753,-0.04426 0.367716,-0.106074 l 2.145003,-1.238577 c 0.394624,-0.259909 0.656796,-0.70468 0.656796,-1.212564 0.0058,-2.11717 0.0029,-4.240637 0.0029,-6.359991 -0.0058,-0.442907 -0.207556,-0.837786 -0.524397,-1.10092 -0.916669,-0.768404 -1.848852,-1.539968 -2.772561,-2.307587 -0.06057,-0.05133 -0.139477,-0.08179 -0.22513,-0.08199 z M 16.504923,56.10768 c -0.409228,0 -0.774374,0.06945 -1.088885,0.218679 -0.304072,0.141807 -0.548597,0.346108 -0.715572,0.607684 -0.164717,0.253196 -0.248762,0.544228 -0.248762,0.85226 0,0.347979 0.102187,0.662329 0.316775,0.894813 0.192049,0.20805 0.424685,0.36832 0.689683,0.474329 h 0.0044 l 0.0029,0.0029 c 0.245239,0.09319 0.555192,0.188343 0.936617,0.287239 0.278597,0.07301 0.491664,0.136143 0.63176,0.187091 l 0.0044,0.0022 h 0.0044 c 0.125593,0.04179 0.219889,0.09722 0.292284,0.163022 l 0.0044,0.0029 0.0044,0.0036 c 0.05948,0.05169 0.07314,0.08329 0.07314,0.15743 0,0.202394 -0.05264,0.297868 -0.19084,0.388676 -0.138261,0.09079 -0.395439,0.157853 -0.773493,0.157853 -0.45409,0 -0.873817,-0.08714 -1.267691,-0.262624 h -0.0029 c -0.07355,-0.03254 -0.154045,-0.05096 -0.234369,-0.05096 -0.144188,0 -0.295459,0.06669 -0.393736,0.173222 -0.09048,0.09877 -0.143561,0.238569 -0.143561,0.372892 0,0.113515 0.03771,0.223419 0.09783,0.313557 l 0.0044,0.0058 0.0044,0.0036 c 0.06159,0.08483 0.149029,0.155639 0.246833,0.196438 0.546128,0.235658 1.132517,0.353425 1.75222,0.353425 0.380078,0 0.726841,-0.0621 1.032907,-0.194065 0.303154,-0.130675 0.554027,-0.319273 0.731806,-0.563732 v -0.0022 c 0.17727,-0.249272 0.269497,-0.541309 0.269497,-0.849042 0,-0.357196 -0.09537,-0.676854 -0.302812,-0.915664 -0.183297,-0.215521 -0.414004,-0.378688 -0.67764,-0.481304 -0.240091,-0.09503 -0.543587,-0.185205 -0.917171,-0.275103 l -0.0029,-0.0029 c -0.274266,-0.0629 -0.490048,-0.120366 -0.644224,-0.171401 -0.133128,-0.04943 -0.236437,-0.11195 -0.320001,-0.187084 -0.05897,-0.05948 -0.08578,-0.118021 -0.08578,-0.229746 0,-0.17285 0.05169,-0.262318 0.219095,-0.365473 0.181419,-0.108878 0.432307,-0.173658 0.766519,-0.173658 0.357378,0 0.70291,0.05751 1.038484,0.173658 0.05817,0.02279 0.114767,0.04164 0.194065,0.04164 0.145119,0 0.299258,-0.06865 0.393736,-0.18021 0.08334,-0.09861 0.136579,-0.230969 0.136579,-0.364076 0,-0.217384 -0.156062,-0.442208 -0.360312,-0.516446 -0.444582,-0.164885 -0.936908,-0.245006 -1.472407,-0.245006 z m 20.720333,0 c -0.523778,0 -0.998835,0.11548 -1.407503,0.353431 -0.405028,0.235847 -0.725269,0.569047 -0.945441,0.983794 -0.219852,0.414187 -0.333331,0.887286 -0.343218,1.407612 v 0.0051 0.0036 c 0.01019,0.520275 0.123315,0.99475 0.343218,1.408995 0.220216,0.414812 0.540537,0.746199 0.945441,0.981966 0.408529,0.237878 0.883587,0.355689 1.407503,0.355689 0.523945,0 0.99574,-0.117112 1.400186,-0.355689 0.404969,-0.235767 0.723368,-0.567154 0.943599,-0.981966 0.224387,-0.41822 0.340174,-0.892258 0.350104,-1.408995 v -0.0036 -0.0051 C 39.908955,58.335729 39.793952,57.864552 39.569041,57.450496 39.349116,57.03208 39.030477,56.696944 38.625442,56.461111 38.220843,56.222498 37.749055,56.10768 37.225256,56.10768 Z m 6.984746,0 c -0.523792,0 -1.000743,0.11548 -1.40944,0.353431 -0.40502,0.235847 -0.723339,0.569047 -0.943489,0.983794 -0.219882,0.414187 -0.332771,0.887351 -0.342701,1.407612 v 0.0051 0.0036 c 0.01019,0.520275 0.122783,0.99475 0.342701,1.408995 0.220194,0.414812 0.538585,0.746199 0.943489,0.981966 0.408566,0.237878 0.885487,0.355689 1.40944,0.355689 0.523311,0 0.994605,-0.117687 1.398795,-0.355689 0.404911,-0.235767 0.72521,-0.567154 0.945434,-0.981966 0.224431,-0.41822 0.340189,-0.892258 0.350105,-1.408995 v -0.0036 -0.0051 c -0.01019,-0.516788 -0.127108,-0.987965 -0.352042,-1.402021 -0.21991,-0.418416 -0.538513,-0.753552 -0.943497,-0.989385 -0.404336,-0.23806 -0.875644,-0.353431 -1.398795,-0.353431 z m -14.177441,0.03465 c -0.134767,0 -0.270888,0.04426 -0.379758,0.124123 -0.106373,0.07671 -0.186479,0.191859 -0.224162,0.31679 v 0.0029 c 0,0 -0.0029,0 -0.0029,0.0029 l -0.930917,3.033795 -0.9278,-3.051421 c -0.03582,-0.114673 -0.104466,-0.221555 -0.197727,-0.299266 -0.09793,-0.08158 -0.230387,-0.12777 -0.357211,-0.12777 l -0.0073,-0.0015 c -0.146852,0 -0.301567,0.05679 -0.40802,0.162585 -0.105157,0.104822 -0.157831,0.26456 -0.150557,0.40802 v 0.0029 c 0.0022,0.06341 0.01303,0.112707 0.02825,0.169574 l 0.0029,0.0073 1.367323,4.197792 0.0029,0.0036 c 0.04958,0.136179 0.128644,0.259231 0.239953,0.348277 l 0.0073,0.0051 0.0073,0.0058 c 0.114564,0.07869 0.254557,0.120781 0.393619,0.120781 0.143168,0 0.28796,-0.04652 0.402968,-0.132816 l 0.0022,-0.0029 c 0.116966,-0.08955 0.206165,-0.217202 0.24866,-0.358914 l 0.878709,-2.780074 0.87729,2.780074 c 0.04121,0.137126 0.12255,0.262471 0.234369,0.35333 l 0.0073,0.0058 0.0073,0.0058 c 0.117366,0.08291 0.261124,0.12927 0.404263,0.12927 0.138923,0 0.279543,-0.04325 0.392338,-0.126052 h 0.0029 c 0.117396,-0.08804 0.203144,-0.214115 0.253829,-0.353432 l 0.0029,-0.0036 1.365488,-4.197916 0.0029,-0.0058 c 0.01631,-0.05984 0.02672,-0.111957 0.02781,-0.176884 0.0058,-0.142148 -0.05307,-0.296317 -0.157533,-0.398773 -0.103104,-0.107182 -0.254994,-0.168184 -0.39921,-0.168184 -0.126606,0 -0.258438,0.0455 -0.35708,0.127887 -0.09313,0.07761 -0.161958,0.184397 -0.197843,0.299164 l -0.927699,3.049586 -0.933282,-3.033788 c -0.03822,-0.12785 -0.124473,-0.241685 -0.232542,-0.316899 -0.105223,-0.07985 -0.238068,-0.12595 -0.369653,-0.12595 z m -9.131583,7.06e-4 c -0.148236,0 -0.300948,0.06763 -0.402968,0.175049 -0.101801,0.104058 -0.162585,0.253203 -0.162585,0.396954 v 4.292793 c 0,0.145621 0.06021,0.296412 0.164515,0.400608 0.103825,0.103971 0.255503,0.164973 0.401038,0.164951 0.144325,0 0.293289,-0.06065 0.397383,-0.163116 0.107953,-0.1025 0.174619,-0.254346 0.174619,-0.402443 V 59.40938 h 2.130718 v 1.598459 c 0,0.146473 0.06057,0.296842 0.164413,0.400601 0.10373,0.103767 0.257382,0.164958 0.402974,0.164958 0.143751,0 0.291491,-0.06137 0.395549,-0.163123 0.107742,-0.102413 0.176883,-0.254179 0.176883,-0.402436 v -4.292964 c 0,-0.147456 -0.06814,-0.298152 -0.175056,-0.400608 -0.102391,-0.105056 -0.25123,-0.171394 -0.397376,-0.171394 -0.148796,0 -0.302345,0.06683 -0.404372,0.175049 -0.101394,0.103621 -0.163015,0.252373 -0.163015,0.396953 v 1.596639 H 21.47298 v -1.596639 c 0,-0.146917 -0.06705,-0.296332 -0.173221,-0.398788 C 21.197375,56.2101 21.04791,56.142873 20.900978,56.142873 Z m 28.455896,0.03291 c -0.148228,0 -0.300096,0.06902 -0.402545,0.176877 -0.101801,0.104116 -0.163007,0.253676 -0.163007,0.397383 v 4.257651 c 0,0.145621 0.06028,0.296412 0.164412,0.400608 0.104219,0.104247 0.255599,0.164842 0.40114,0.164842 0.143882,3.6e-5 0.293777,-0.06174 0.397384,-0.163014 0.107334,-0.10202 0.176563,-0.253298 0.176563,-0.402436 v -1.235782 h 1.012049 c 0.469073,0 0.870162,-0.07799 1.197311,-0.252424 0.313034,-0.166982 0.5567,-0.394071 0.703974,-0.677211 0.139076,-0.267524 0.209871,-0.561824 0.209871,-0.868487 0,-0.306685 -0.07069,-0.600833 -0.209871,-0.868379 -0.147209,-0.282994 -0.390729,-0.510141 -0.703974,-0.677203 -0.327331,-0.174598 -0.72842,-0.252425 -1.197311,-0.252425 z m -12.131618,1.029566 c 0.332974,0 0.604895,0.07308 0.835172,0.213634 0.235287,0.14354 0.406499,0.329924 0.530301,0.577485 0.124814,0.249658 0.189027,0.533424 0.189027,0.861498 0,0.328104 -0.06429,0.610079 -0.189027,0.859679 -0.123802,0.247561 -0.295014,0.435962 -0.530301,0.579523 -0.230081,0.140431 -0.502009,0.213423 -0.835172,0.213423 -0.338224,0 -0.612591,-0.07341 -0.842053,-0.213423 -0.229753,-0.143081 -0.401409,-0.331795 -0.52527,-0.579523 -0.124683,-0.249418 -0.188911,-0.531349 -0.188911,-0.859679 0,-0.328307 0.06429,-0.612022 0.188911,-0.861498 0.123861,-0.247729 0.29556,-0.434419 0.52527,-0.577485 0.2296,-0.140139 0.504011,-0.213634 0.842053,-0.213634 z m 6.984746,0 c 0.332959,0 0.602951,0.07308 0.833236,0.213634 0.235279,0.14354 0.408464,0.329946 0.532252,0.577485 0.124807,0.249658 0.189019,0.533424 0.189019,0.861498 0,0.328104 -0.06428,0.610079 -0.189019,0.859679 -0.123788,0.247561 -0.296973,0.435962 -0.532252,0.579523 -0.230103,0.140431 -0.500117,0.213423 -0.833236,0.213423 -0.338282,0 -0.612591,-0.07341 -0.842053,-0.213423 -0.230277,-0.143212 -0.401147,-0.331424 -0.525161,-0.579523 -0.124741,-0.249418 -0.189012,-0.531349 -0.189012,-0.859679 0,-0.328307 0.06428,-0.612022 0.189012,-0.861498 0.124014,-0.2481 0.294913,-0.434331 0.525161,-0.577485 0.229608,-0.140139 0.503975,-0.213634 0.842053,-0.213634 z m 5.720819,0.07511 h 0.950908 c 0.440716,0 0.705189,0.09288 0.819374,0.201484 l 0.0029,0.0029 0.0029,0.0022 c 0.148803,0.138116 0.2103,0.280061 0.2103,0.488184 0,0.208101 -0.06152,0.352398 -0.2103,0.490557 h -0.0029 l -0.0029,0.0029 c -0.114046,0.108419 -0.378498,0.201491 -0.819374,0.201491 h -0.950908 z"
       id="path1337"
       inkscape:connector-curvature="0"
       sodipodi:nodetypes="ccccccssccscccccscccsscccscsccsccsccssccssccsccccccccsccccccccccccccccccccccscsccscsccccscccsccccccscscscscccscccccccscccccccsscccccccscccccccssccsccccccccccccccccsccccccccsccccccccscccccsscsssccsccscscsscscsccscsscsssccscsccsccsssccsscsccsccssccsccsccsccscscccscccscccscc" />
    <text
       xml:space="preserve"
       style="font-style:normal;font-weight:normal;font-size:2.82222223px;line-height:1.25;font-family:sans-serif;letter-spacing:0px;word-spacing:0px;fill:#000000;fill-opacity:1;stroke:none;stroke-width:0.26458332"
       x="215.15196"
       y="222.91287"
       id="text1349"><tspan
         sodipodi:role="line"
         id="tspan1347"
         x="215.15196"
         y="225.48767"
         style="stroke-width:0.26458332" /></text>
    <text
       id="text1353"
       y="208.66617"
       x="62.04237"
       style="font-style:normal;font-weight:normal;font-size:4.98117352px;line-height:1.25;font-family:sans-serif;text-align:center;letter-spacing:0px;word-spacing:0px;text-anchor:middle;fill:#0f0f0f;fill-opacity:1;stroke:none;stroke-width:0.17860174"
       xml:space="preserve"><tspan
         style="text-align:center;text-anchor:middle;fill:#0f0f0f;fill-opacity:1;stroke-width:0.17860174"
         y="208.66617"
         x="62.04237"
         id="tspan1351"
         sodipodi:role="line">224,0,96</tspan></text>
    <text
       id="text1357"
       y="208.63574"
       x="22.708466"
       style="font-style:normal;font-weight:normal;font-size:4.98117352px;line-height:1.25;font-family:sans-serif;text-align:center;letter-spacing:0px;word-spacing:0px;text-anchor:middle;fill:#0f0f0f;fill-opacity:1;stroke:none;stroke-width:0.17860174"
       xml:space="preserve"><tspan
         style="text-align:center;text-anchor:middle;fill:#0f0f0f;fill-opacity:1;stroke-width:0.17860174"
         y="208.63574"
         x="22.708466"
         id="tspan1355"
         sodipodi:role="line">85,17,170</tspan></text>
    <text
       id="text1361"
       y="208.72333"
       x="140.4086"
       style="font-style:normal;font-weight:normal;font-size:4.98117447px;line-height:1.25;font-family:sans-serif;text-align:center;letter-spacing:0px;word-spacing:0px;text-anchor:middle;fill:#0f0f0f;fill-opacity:1;stroke:none;stroke-width:0.17860174"
       xml:space="preserve"><tspan
         style="text-align:center;text-anchor:middle;fill:#0f0f0f;fill-opacity:1;stroke-width:0.17860174"
         y="208.72333"
         x="140.4086"
         id="tspan1359"
         sodipodi:role="line">245,245,245</tspan></text>
    <text
       id="text1365"
       y="208.72333"
       x="179.37766"
       style="font-style:normal;font-weight:normal;font-size:4.98117447px;line-height:1.25;font-family:sans-serif;text-align:center;letter-spacing:0px;word-spacing:0px;text-anchor:middle;fill:#0f0f0f;fill-opacity:1;stroke:none;stroke-width:0.17860174"
       xml:space="preserve"><tspan
         style="text-align:center;text-anchor:middle;fill:#0f0f0f;fill-opacity:1;stroke-width:0.17860174"
         y="208.72333"
         x="179.37766"
         id="tspan1363"
         sodipodi:role="line">15,15,15</tspan></text>
    <text
       id="text1369"
       y="208.66739"
       x="101.10387"
       style="font-style:normal;font-weight:normal;font-size:4.98117352px;line-height:1.25;font-family:sans-serif;text-align:center;letter-spacing:0px;word-spacing:0px;text-anchor:middle;fill:#0f0f0f;fill-opacity:1;stroke:none;stroke-width:0.17860174"
       xml:space="preserve"><tspan
         style="text-align:center;text-anchor:middle;fill:#0f0f0f;fill-opacity:1;stroke-width:0.17860174"
         y="208.66739"
         x="101.10387"
         id="tspan1367"
         sodipodi:role="line">3,3,68</tspan></text>
    <rect
       inkscape:export-ydpi="349.91635"
       inkscape:export-xdpi="349.91635"
       ry="0"
       y="6.6897187"
       x="72.537422"
       height="65.775406"
       width="65.775406"
       id="rect1371"
       style="opacity:1;fill:#030344;fill-opacity:1;fill-rule:nonzero;stroke:none;stroke-width:0.56762141;stroke-linecap:round;stroke-linejoin:round;stroke-miterlimit:4;stroke-dasharray:none;stroke-dashoffset:0;stroke-opacity:1" />
    <rect
       inkscape:export-ydpi="349.91635"
       inkscape:export-xdpi="349.91635"
       ry="0"
       y="6.6897187"
       x="144.23038"
       height="65.775406"
       width="65.775406"
       id="rect1373"
       style="opacity:1;fill:#f5f5f5;fill-opacity:1;fill-rule:nonzero;stroke:none;stroke-width:0.56762141;stroke-linecap:round;stroke-linejoin:round;stroke-miterlimit:4;stroke-dasharray:none;stroke-dashoffset:0;stroke-opacity:1" />
    <path
       sodipodi:nodetypes="ccccccssccscccccscccsscccscsccsccsccssccssccsccccccccsccccccccccccccccccccccscsccscsccccscccsccccccscscscscccscccccccscccccccsscccccccscccccccssccsccccccccccccccccsccccccccsccccccccscccccsscsssccsccscscsscscsccscsscsssccscsccsccsssccsscsccsccssccsccsccsccscscccscccscccscc"
       inkscape:connector-curvature="0"
       id="path1377"
       d="m 102.82397,17.541799 c -0.18569,0 -0.3358,0.145352 -0.34644,0.328402 l 0.004,10.960109 c 0.49355,-0.388676 0.93094,-0.736247 1.43124,-1.127792 0.79995,-0.615262 1.93861,-0.07701 1.93234,0.922646 l 0.003,18.496662 c 0.004,0.280395 0.004,0.528386 0.004,0.546543 0,0.385611 0.31298,0.698491 0.69858,0.698491 0.1249,0 0.24272,-0.03247 0.34366,-0.09079 0.9068,-0.52195 0.16771,-0.09691 1.1482,-0.663342 0.20134,-0.122506 0.32797,-0.240404 0.32797,-0.493251 V 22.678363 c -0.0146,-0.432489 -0.21675,-0.817001 -0.52945,-1.073626 -1.59627,-1.327281 -3.19854,-2.65818 -4.79721,-3.986531 -0.0595,-0.04718 -0.13398,-0.07596 -0.21577,-0.07596 z m 1.83541,10.737993 v 7.06e-4 c -0.0828,0 -0.15894,0.02985 -0.21868,0.07823 -1.47063,1.150871 -2.95595,2.325788 -4.21124,3.31727 -0.344975,0.265769 -0.567383,0.682759 -0.567383,1.15197 v 12.05749 c 0,0.517349 0.271521,0.969794 0.678613,1.227395 1.20431,0.691276 2.40411,1.394762 3.60999,2.080629 0.10539,0.06385 0.22905,0.100578 0.36128,0.100578 0.38563,-2.2e-5 0.69848,-0.312371 0.69848,-0.698062 V 28.634723 c 0,-0.0022 -0.003,-0.0029 -0.003,-0.0051 0,-0.0407 -0.007,-0.07997 -0.0199,-0.116282 -0.0478,-0.135225 -0.17697,-0.232381 -0.32838,-0.232971 z m -9.332423,0.290777 c -0.18752,0 -0.35732,0.07478 -0.482076,0.195805 -4.154248,4.234404 -5.384351,10.558124 -3.110836,16.046911 2.291651,5.532505 7.699044,9.145976 13.687435,9.145976 5.98838,0 11.39811,-3.613471 13.68979,-9.145976 2.27227,-5.485751 1.03814,-11.798805 -3.10547,-16.03832 -0.12507,-0.123024 -0.29621,-0.199234 -0.4855,-0.199234 -0.38272,0 -0.69301,0.310172 -0.69301,0.6929 0,0.859445 0,1.7417 0,2.521636 0.026,0.300686 0.10515,0.599188 0.25209,0.815203 2.17789,3.201636 2.6366,7.331808 1.11683,11.000835 -1.80671,4.361891 -6.05271,7.198708 -10.77399,7.198708 -4.72126,0 -8.966809,-2.836817 -10.773566,-7.198708 -1.520378,-3.670607 -1.04947,-7.795151 1.119732,-11.004919 0.16712,-0.247299 0.24842,-0.564344 0.251332,-0.817657 7.06e-4,-0.87801 7.06e-4,-1.768848 0,-2.520267 -1.4e-5,-0.382707 -0.310288,-0.692901 -0.693009,-0.692901 z m 14.226223,5.553298 h -7e-4 c -0.19098,0 -0.34525,0.153251 -0.34785,0.343647 v 11.360397 0.0029 c 5e-5,0 0,0.0022 0,0.0022 0,0.385618 0.31246,0.698062 0.69805,0.698062 0.14787,0 0.26076,-0.04427 0.36773,-0.106067 l 2.145,-1.238577 c 0.39462,-0.259916 0.6568,-0.70468 0.6568,-1.212572 0.006,-2.117162 0.003,-4.240629 0.003,-6.359983 -0.006,-0.442907 -0.20756,-0.837786 -0.52441,-1.10092 -0.91667,-0.768404 -1.84885,-1.539968 -2.77255,-2.307587 -0.0607,-0.05133 -0.13948,-0.08181 -0.22513,-0.08201 z M 88.199494,56.108341 c -0.409229,0 -0.774382,0.06945 -1.088886,0.218679 -0.304078,0.1418 -0.548603,0.346108 -0.715578,0.607684 -0.164725,0.253203 -0.248763,0.544221 -0.248763,0.852252 0,0.347987 0.102195,0.662337 0.316783,0.894821 0.192048,0.20805 0.424677,0.368313 0.689675,0.474329 h 0.0044 l 0.0029,0.0029 c 0.245232,0.09324 0.555185,0.18835 0.93661,0.287239 0.278604,0.07304 0.491671,0.13615 0.63176,0.187091 l 0.0036,0.0022 h 0.0036 c 0.125593,0.04179 0.219888,0.09721 0.292284,0.163022 l 0.0036,0.0029 0.0036,0.0029 c 0.05948,0.05169 0.07319,0.08334 0.07319,0.157423 0,0.202401 -0.05264,0.297868 -0.190847,0.38869 -0.138254,0.09078 -0.395432,0.157853 -0.773486,0.157853 -0.45409,0 -0.873824,-0.08712 -1.267699,-0.262624 h -0.0029 c -0.07359,-0.03254 -0.154052,-0.05089 -0.234369,-0.05089 -0.144187,0 -0.295466,0.06661 -0.393736,0.173214 -0.09048,0.09874 -0.143568,0.238577 -0.143568,0.3729 0,0.113508 0.03778,0.223412 0.09779,0.313557 l 0.0036,0.0058 0.0036,0.0029 c 0.06159,0.08477 0.149029,0.155639 0.246833,0.196431 0.546128,0.235665 1.132517,0.353432 1.752227,0.353432 0.380078,0 0.726834,-0.0621 1.0329,-0.194065 0.303154,-0.130683 0.554035,-0.319273 0.731806,-0.56374 v -0.0022 c 0.177262,-0.249272 0.269504,-0.541308 0.269504,-0.849041 0,-0.357196 -0.09534,-0.676855 -0.302819,-0.915657 -0.18329,-0.215521 -0.414004,-0.378688 -0.67764,-0.481312 -0.240092,-0.09507 -0.543588,-0.185197 -0.917164,-0.275095 l -0.0029,-0.0029 c -0.274266,-0.0629 -0.490048,-0.120366 -0.644224,-0.171401 -0.133121,-0.04943 -0.236444,-0.11195 -0.320008,-0.187076 -0.05897,-0.05948 -0.08575,-0.118037 -0.08575,-0.229754 0,-0.17285 0.05169,-0.262318 0.219102,-0.365473 0.18142,-0.108885 0.4323,-0.173658 0.766519,-0.173658 0.357378,0 0.702918,0.05751 1.038484,0.173658 0.0581,0.02271 0.114768,0.04172 0.194065,0.04172 0.145119,0 0.299252,-0.06865 0.393736,-0.18021 0.08335,-0.09864 0.136579,-0.230962 0.136579,-0.364076 0,-0.217384 -0.156054,-0.442208 -0.360311,-0.516446 -0.444582,-0.164886 -0.936901,-0.245006 -1.472408,-0.245006 z m 20.720326,0 c -0.52376,0 -0.99883,0.11548 -1.4075,0.353431 -0.40502,0.235847 -0.72526,0.56904 -0.94544,0.983787 -0.21985,0.414186 -0.33333,0.887293 -0.34322,1.407619 v 0.0051 0.0029 c 0.01,0.520283 0.12332,0.99475 0.34322,1.409002 0.22022,0.414805 0.54053,0.7462 0.94544,0.981967 0.40854,0.237863 0.88359,0.355681 1.4075,0.355681 0.52395,0 0.99575,-0.117112 1.40019,-0.355681 0.40497,-0.235767 0.72337,-0.567162 0.9436,-0.981967 0.22438,-0.418227 0.34017,-0.892258 0.35012,-1.409002 v -0.0029 -0.0051 c -0.01,-0.516795 -0.1252,-0.987965 -0.35012,-1.402028 -0.21992,-0.418409 -0.53856,-0.753538 -0.9436,-0.989378 -0.40459,-0.238613 -0.87638,-0.353431 -1.40019,-0.353431 z m 6.98475,0 c -0.52379,0 -1.00074,0.11548 -1.40943,0.353431 -0.40503,0.235847 -0.72334,0.56904 -0.94349,0.983787 -0.21989,0.414186 -0.33277,0.887365 -0.34271,1.407619 v 0.0051 0.0029 c 0.01,0.520283 0.1228,0.99475 0.34271,1.409002 0.22019,0.414805 0.53857,0.7462 0.94349,0.981967 0.40856,0.237863 0.88548,0.355681 1.40943,0.355681 0.52332,0 0.99461,-0.117687 1.3988,-0.355681 0.40491,-0.235767 0.7252,-0.567162 0.94543,-0.981967 0.22443,-0.418227 0.34019,-0.892258 0.3501,-1.409002 v -0.0029 -0.0051 c -0.01,-0.516795 -0.12711,-0.987965 -0.35204,-1.402028 -0.2199,-0.418409 -0.53851,-0.753538 -0.94349,-0.989378 -0.40434,-0.238052 -0.87565,-0.353431 -1.3988,-0.353431 z m -14.17744,0.03465 c -0.13477,0 -0.27089,0.04427 -0.37976,0.124123 -0.10636,0.0767 -0.18648,0.191852 -0.22416,0.31679 v 0.0029 c 0,0 -0.003,0 -0.003,0.0029 l -0.93092,3.033795 -0.927809,-3.051421 c -0.03582,-0.114673 -0.104459,-0.221555 -0.197734,-0.299266 -0.09794,-0.08161 -0.230373,-0.12777 -0.357196,-0.12777 l -0.0073,-7.28e-4 c -0.146852,0 -0.301559,0.05679 -0.40802,0.162585 -0.105157,0.104822 -0.15783,0.264568 -0.15055,0.408027 v 0.0029 c 0.0022,0.06341 0.01311,0.112707 0.02825,0.169574 l 0.0029,0.0073 1.367315,4.197785 0.0029,0.0029 c 0.04951,0.136179 0.128651,0.259224 0.239961,0.348277 l 0.0073,0.0051 0.0074,0.0058 c 0.114564,0.07865 0.254553,0.120788 0.393623,0.120788 0.14316,0 0.28796,-0.04652 0.40297,-0.132815 l 0.002,-0.0029 c 0.11695,-0.08956 0.20616,-0.217202 0.24866,-0.358907 l 0.87869,-2.780082 0.8773,2.780082 c 0.0413,0.137111 0.12255,0.262471 0.23438,0.353315 l 0.007,0.0058 0.007,0.0058 c 0.11736,0.08294 0.26111,0.129277 0.40425,0.129277 0.13893,0 0.27955,-0.04324 0.39233,-0.126052 h 0.003 c 0.11739,-0.08803 0.20314,-0.214108 0.25383,-0.353432 l 0.003,-0.0029 1.36548,-4.197916 0.003,-0.0058 c 0.0163,-0.05992 0.0267,-0.111964 0.0279,-0.17689 0.007,-0.142157 -0.053,-0.296318 -0.15753,-0.398774 -0.1031,-0.107189 -0.25499,-0.168184 -0.39921,-0.168184 -0.1266,0 -0.25844,0.0455 -0.35708,0.127887 -0.0931,0.07762 -0.16196,0.184397 -0.19783,0.299164 l -0.9277,3.049586 -0.93329,-3.033788 c -0.0383,-0.127843 -0.12447,-0.241685 -0.23254,-0.316906 -0.10523,-0.07986 -0.23807,-0.125943 -0.36966,-0.125943 z m -9.131586,7.06e-4 c -0.148235,0 -0.300948,0.06764 -0.402968,0.175042 -0.101772,0.104058 -0.162592,0.25321 -0.162592,0.396953 v 4.292793 c 0,0.145629 0.06021,0.296413 0.164522,0.400609 0.103825,0.103971 0.255511,0.16498 0.401038,0.164958 0.144326,0 0.293281,-0.06057 0.39739,-0.163116 0.107954,-0.102507 0.174612,-0.254346 0.174612,-0.402451 v -1.598459 h 2.130719 v 1.598459 c 0,0.146481 0.06057,0.296842 0.164412,0.400609 0.103723,0.103767 0.257375,0.164958 0.402967,0.164958 0.143758,0 0.291498,-0.0613 0.395549,-0.163116 0.107749,-0.10242 0.176891,-0.254186 0.176891,-0.402451 v -4.292953 c 0,-0.14747 -0.06815,-0.298166 -0.175056,-0.400623 -0.102399,-0.105041 -0.251231,-0.171387 -0.397384,-0.171387 -0.148788,0 -0.302345,0.06683 -0.404365,0.175049 -0.101386,0.103621 -0.163014,0.252374 -0.163014,0.396961 v 1.596632 h -2.130719 v -1.596632 c 0,-0.146924 -0.06705,-0.296339 -0.173221,-0.398795 -0.102376,-0.105988 -0.251849,-0.173215 -0.398781,-0.173215 z m 28.455906,0.03283 c -0.14823,0 -0.3001,0.06894 -0.40255,0.176883 -0.10178,0.104116 -0.163,0.253669 -0.163,0.397383 v 4.257651 c 0,0.145614 0.0603,0.296412 0.16441,0.400601 0.10421,0.104248 0.2556,0.164849 0.40114,0.164849 0.14388,2.9e-5 0.29377,-0.06181 0.39738,-0.163014 0.10733,-0.102027 0.17656,-0.253305 0.17656,-0.402436 v -1.235788 h 1.01205 c 0.46908,0 0.87016,-0.07803 1.19731,-0.252425 0.31304,-0.166982 0.5567,-0.394071 0.70398,-0.677211 0.13907,-0.267516 0.20986,-0.561817 0.20986,-0.86848 0,-0.306692 -0.0707,-0.600833 -0.20986,-0.868378 -0.1472,-0.282995 -0.39073,-0.510156 -0.70398,-0.677211 -0.32733,-0.17459 -0.72842,-0.252424 -1.19731,-0.252424 z m -12.13163,1.029572 c 0.33298,0 0.6049,0.07304 0.83517,0.213627 0.2353,0.143547 0.40651,0.329924 0.53032,0.577492 0.12481,0.249651 0.18902,0.533424 0.18902,0.861492 0,0.328103 -0.0642,0.610078 -0.18902,0.859678 -0.12381,0.247561 -0.29502,0.435969 -0.53032,0.57953 -0.23008,0.140424 -0.50201,0.213416 -0.83517,0.213416 -0.33821,0 -0.61259,-0.07344 -0.84205,-0.213416 -0.22975,-0.14308 -0.4014,-0.331802 -0.52526,-0.57953 -0.12469,-0.24941 -0.18891,-0.531349 -0.18891,-0.859678 0,-0.328308 0.0642,-0.612023 0.18891,-0.861492 0.12386,-0.247735 0.29556,-0.434425 0.52526,-0.577492 0.22961,-0.140146 0.50402,-0.213627 0.84205,-0.213627 z m 6.98475,0 c 0.33296,0 0.60295,0.07304 0.83324,0.213627 0.23527,0.143547 0.40846,0.329946 0.53225,0.577492 0.12481,0.249651 0.18902,0.533424 0.18902,0.861492 0,0.328103 -0.0642,0.610078 -0.18902,0.859678 -0.12379,0.247561 -0.29698,0.435969 -0.53225,0.57953 -0.23009,0.140424 -0.50012,0.213416 -0.83324,0.213416 -0.33828,0 -0.61259,-0.07344 -0.84205,-0.213416 -0.23028,-0.143219 -0.40115,-0.33143 -0.52515,-0.57953 -0.12475,-0.24941 -0.18903,-0.531349 -0.18903,-0.859678 0,-0.328308 0.0643,-0.612023 0.18903,-0.861492 0.124,-0.248099 0.2949,-0.434345 0.52515,-0.577492 0.22961,-0.140146 0.50398,-0.213627 0.84205,-0.213627 z m 5.72082,0.07507 h 0.9509 c 0.44072,0 0.7052,0.09283 0.81939,0.201491 l 0.003,0.0029 0.003,0.0022 c 0.1488,0.138116 0.2103,0.280061 0.2103,0.488184 0,0.208102 -0.0615,0.352398 -0.2103,0.490558 h -0.003 l -0.003,0.0029 c -0.11405,0.108426 -0.3785,0.201491 -0.81939,0.201491 h -0.9509 z"
       style="color:#000000;font-style:normal;font-variant:normal;font-weight:normal;font-stretch:normal;font-size:medium;line-height:normal;font-family:sans-serif;font-variant-ligatures:normal;font-variant-position:normal;font-variant-caps:normal;font-variant-numeric:normal;font-variant-alternates:normal;font-feature-settings:normal;text-indent:0;text-align:start;text-decoration:none;text-decoration-line:none;text-decoration-style:solid;text-decoration-color:#000000;letter-spacing:normal;word-spacing:normal;text-transform:none;writing-mode:lr-tb;direction:ltr;text-orientation:mixed;dominant-baseline:auto;baseline-shift:baseline;text-anchor:start;white-space:normal;shape-padding:0;clip-rule:nonzero;display:inline;overflow:visible;visibility:visible;opacity:1;isolation:auto;mix-blend-mode:normal;color-interpolation:sRGB;color-interpolation-filters:linearRGB;solid-color:#000000;solid-opacity:1;vector-effect:none;fill:#f5f5f5;fill-opacity:1;fill-rule:nonzero;stroke:none;stroke-width:3.15524936;stroke-linecap:round;stroke-linejoin:round;stroke-miterlimit:4;stroke-dasharray:none;stroke-dashoffset:0;stroke-opacity:1;color-rendering:auto;image-rendering:auto;shape-rendering:auto;text-rendering:auto;enable-background:accumulate" />
    <text
       xml:space="preserve"
       style="font-style:normal;font-weight:normal;font-size:2.82222223px;line-height:1.25;font-family:sans-serif;letter-spacing:0px;word-spacing:0px;fill:#000000;fill-opacity:1;stroke:none;stroke-width:0.26458332"
       x="300.69894"
       y="113.24687"
       id="text1423"
       inkscape:export-filename="C:\Users\Hayden\Dropbox\Hayden\Work\shwoop\branding\stickers\Shwoop app cirlcle sticker.png"
       inkscape:export-xdpi="599.92999"
       inkscape:export-ydpi="599.92999"><tspan
         sodipodi:role="line"
         id="tspan1421"
         x="300.69894"
         y="113.24687"
         style="stroke-width:0.26458332" /></text>
    <path
       sodipodi:nodetypes="ccccccssccscccccscccsscccscsccsccsccssccssccsccccccccsccccccccccccccccccccccscsccscsccccscccsccccccscscscscccscccccccscccccccsscccccccscccccccssccsccccccccccccccccsccccccccsccccccccscccccsscsssccsccscscsscscsccscsscsssccscsccsccsssccsscsccsccssccsccsccsccscscccscccscccscc"
       inkscape:connector-curvature="0"
       id="path1377-2"
       d="m 174.51631,17.541799 c -0.18569,0 -0.3358,0.145352 -0.34645,0.328402 l 0.004,10.960109 c 0.49355,-0.388676 0.93094,-0.736247 1.43125,-1.127792 0.79994,-0.615262 1.9386,-0.07701 1.93234,0.922646 l 0.003,18.496662 c 0.004,0.280395 0.004,0.528386 0.004,0.546543 0,0.385611 0.31299,0.698491 0.69859,0.698491 0.1249,0 0.24272,-0.03247 0.34366,-0.09079 0.9068,-0.52195 0.16771,-0.09691 1.1482,-0.663342 0.20134,-0.122506 0.32797,-0.240404 0.32797,-0.493251 V 22.678363 c -0.0146,-0.432489 -0.21677,-0.817001 -0.52947,-1.073626 -1.59626,-1.327281 -3.19852,-2.65818 -4.79719,-3.986531 -0.0595,-0.04718 -0.13399,-0.07596 -0.21578,-0.07596 z m 1.83541,10.737993 v 7.13e-4 c -0.0828,0 -0.15894,0.02985 -0.21868,0.07823 -1.47063,1.15087 -2.95596,2.325788 -4.21124,3.317269 -0.34497,0.26577 -0.56738,0.682759 -0.56738,1.15197 v 12.057491 c 0,0.517349 0.27152,0.969793 0.6786,1.227394 1.20431,0.691276 2.40412,1.394762 3.61,2.080629 0.10539,0.06385 0.22905,0.100578 0.36127,0.100578 0.38564,-2.2e-5 0.69849,-0.31237 0.69849,-0.698062 V 28.634723 c 0,-0.0022 -0.003,-0.0029 -0.003,-0.0051 0,-0.0407 -0.007,-0.07997 -0.0199,-0.116282 -0.0478,-0.135225 -0.17697,-0.232381 -0.32839,-0.232971 z m -9.33243,0.290777 c -0.18751,0 -0.35731,0.07478 -0.48206,0.195805 -4.15426,4.234404 -5.38435,10.558124 -3.11085,16.046911 2.29166,5.532505 7.69905,9.145976 13.68743,9.145976 5.98839,0 11.39811,-3.613471 13.68979,-9.145976 2.27227,-5.485751 1.03815,-11.798805 -3.10546,-16.03832 -0.12507,-0.123024 -0.29622,-0.199234 -0.48551,-0.199234 -0.38272,0 -0.693,0.310172 -0.693,0.6929 0,0.859445 0,1.7417 0,2.521636 0.026,0.300686 0.10515,0.599188 0.25208,0.815203 2.17789,3.201636 2.63661,7.331808 1.11684,11.000835 -1.80671,4.361891 -6.05271,7.198708 -10.77399,7.198708 -4.72127,0 -8.9668,-2.836817 -10.77357,-7.198708 -1.52038,-3.670607 -1.04947,-7.795151 1.11973,-11.004919 0.16713,-0.247299 0.24842,-0.564344 0.25134,-0.817657 7.1e-4,-0.87801 7.1e-4,-1.768848 0,-2.520267 -1e-5,-0.382707 -0.31029,-0.692901 -0.69301,-0.692901 z m 14.22623,5.553298 h -7.3e-4 c -0.19098,0 -0.34524,0.153251 -0.34785,0.343647 v 11.360397 0.0029 c 5e-5,0 0,0.0022 0,0.0022 0,0.385618 0.31246,0.698062 0.69806,0.698062 0.14786,0 0.26076,-0.04427 0.36773,-0.106067 l 2.145,-1.238577 c 0.39461,-0.259916 0.65679,-0.70468 0.65679,-1.212572 0.006,-2.117162 0.003,-4.240629 0.003,-6.359983 -0.006,-0.442907 -0.20755,-0.837786 -0.5244,-1.10092 -0.91667,-0.768404 -1.84885,-1.539968 -2.77256,-2.307587 -0.0607,-0.05133 -0.13947,-0.08181 -0.22512,-0.08201 z m -21.35369,21.984474 c -0.40922,0 -0.77437,0.06945 -1.08888,0.218679 -0.30408,0.1418 -0.5486,0.346108 -0.71558,0.607684 -0.16472,0.253203 -0.24876,0.544221 -0.24876,0.852252 0,0.347987 0.10219,0.662337 0.31679,0.894821 0.19204,0.20805 0.42467,0.368313 0.68966,0.474329 h 0.004 l 0.003,0.0029 c 0.24524,0.09324 0.55519,0.18835 0.93662,0.287239 0.2786,0.07304 0.49167,0.13615 0.63176,0.187091 l 0.004,0.0022 h 0.004 c 0.12559,0.04179 0.21988,0.09721 0.29228,0.163022 l 0.004,0.0029 0.004,0.0029 c 0.0595,0.05169 0.0732,0.08334 0.0732,0.157423 0,0.202401 -0.0526,0.297868 -0.19084,0.38869 -0.13826,0.09078 -0.39544,0.157853 -0.7735,0.157853 -0.45409,0 -0.87381,-0.08712 -1.26769,-0.262624 h -0.003 c -0.0736,-0.03254 -0.15405,-0.05089 -0.23437,-0.05089 -0.14418,0 -0.29545,0.06661 -0.39373,0.173214 -0.0905,0.09874 -0.14356,0.238577 -0.14356,0.3729 0,0.113508 0.0378,0.223412 0.0978,0.313557 l 0.004,0.0058 0.004,0.0029 c 0.0616,0.08477 0.14904,0.155639 0.24683,0.196431 0.54613,0.235665 1.13252,0.353432 1.75224,0.353432 0.38007,0 0.72682,-0.0621 1.0329,-0.194065 0.30314,-0.130683 0.55402,-0.319273 0.7318,-0.56374 v -0.0022 c 0.17727,-0.249272 0.2695,-0.541308 0.2695,-0.849041 0,-0.357196 -0.0953,-0.676855 -0.30282,-0.915657 -0.18329,-0.215521 -0.414,-0.378688 -0.67764,-0.481312 -0.24008,-0.09507 -0.54359,-0.185197 -0.91716,-0.275095 l -0.003,-0.0029 c -0.27426,-0.0629 -0.49005,-0.120366 -0.64422,-0.171401 -0.13313,-0.04943 -0.23645,-0.11195 -0.32002,-0.187076 -0.059,-0.05948 -0.0857,-0.118037 -0.0857,-0.229754 0,-0.17285 0.0517,-0.262318 0.2191,-0.365473 0.18142,-0.108885 0.4323,-0.173658 0.76652,-0.173658 0.35738,0 0.70292,0.05751 1.03848,0.173658 0.0581,0.02271 0.11477,0.04172 0.19407,0.04172 0.14512,0 0.29925,-0.06865 0.39374,-0.18021 0.0833,-0.09864 0.13658,-0.230962 0.13658,-0.364076 0,-0.217384 -0.15606,-0.442208 -0.36031,-0.516446 -0.44459,-0.164886 -0.93691,-0.245006 -1.47241,-0.245006 z m 20.72032,0 c -0.52376,0 -0.99883,0.11548 -1.4075,0.353431 -0.40502,0.235847 -0.72526,0.56904 -0.94543,0.983787 -0.21985,0.414186 -0.33334,0.887293 -0.34322,1.407619 v 0.0051 0.0029 c 0.01,0.520283 0.12332,0.99475 0.34322,1.409002 0.22021,0.414805 0.54053,0.7462 0.94543,0.981967 0.40854,0.237863 0.8836,0.355681 1.4075,0.355681 0.52395,0 0.99575,-0.117112 1.4002,-0.355681 0.40496,-0.235767 0.72336,-0.567162 0.94359,-0.981967 0.22439,-0.418227 0.34018,-0.892258 0.35012,-1.409002 v -0.0029 -0.0051 c -0.01,-0.516795 -0.1252,-0.987965 -0.35012,-1.402028 -0.21992,-0.418409 -0.53856,-0.753538 -0.94359,-0.989378 -0.4046,-0.238613 -0.87638,-0.353431 -1.4002,-0.353431 z m 6.98476,0 c -0.52379,0 -1.00074,0.11548 -1.40944,0.353431 -0.40502,0.235847 -0.72334,0.56904 -0.94349,0.983787 -0.21988,0.414186 -0.33277,0.887365 -0.3427,1.407619 v 0.0051 0.0029 c 0.01,0.520283 0.12279,0.99475 0.3427,1.409002 0.22019,0.414805 0.53858,0.7462 0.94349,0.981967 0.40856,0.237863 0.88548,0.355681 1.40944,0.355681 0.52331,0 0.9946,-0.117687 1.3988,-0.355681 0.4049,-0.235767 0.7252,-0.567162 0.94542,-0.981967 0.22444,-0.418227 0.34019,-0.892258 0.35011,-1.409002 v -0.0029 -0.0051 c -0.01,-0.516795 -0.12711,-0.987965 -0.35204,-1.402028 -0.21991,-0.418409 -0.53851,-0.753538 -0.94349,-0.989378 -0.40434,-0.238052 -0.87565,-0.353431 -1.3988,-0.353431 z m -14.17745,0.03465 c -0.13476,0 -0.27088,0.04427 -0.37975,0.124123 -0.10637,0.0767 -0.18648,0.191852 -0.22416,0.31679 v 0.0029 c 0,0 -0.003,0 -0.003,0.0029 l -0.93091,3.033795 -0.9278,-3.051421 c -0.0358,-0.11468 -0.10447,-0.221563 -0.19774,-0.299273 -0.0979,-0.08161 -0.23038,-0.12777 -0.3572,-0.12777 l -0.007,-7.28e-4 c -0.14685,0 -0.30156,0.05679 -0.40801,0.162584 -0.10516,0.104823 -0.15784,0.264568 -0.15056,0.408028 v 0.0029 c 0.002,0.06341 0.0131,0.112707 0.0282,0.169574 l 0.003,0.0073 1.36732,4.197784 0.003,0.0029 c 0.0495,0.136186 0.12865,0.259224 0.23996,0.348284 l 0.007,0.0051 0.007,0.0058 c 0.11457,0.07864 0.25457,0.120781 0.39363,0.120781 0.14317,0 0.28795,-0.04652 0.40297,-0.132816 l 0.002,-0.0029 c 0.11696,-0.08956 0.20616,-0.217194 0.24866,-0.358906 l 0.8787,-2.780075 0.8773,2.780075 c 0.0413,0.137118 0.12255,0.262478 0.23437,0.353322 l 0.007,0.0058 0.007,0.0058 c 0.11737,0.08294 0.26112,0.129277 0.40425,0.129277 0.13893,0 0.27956,-0.04324 0.39234,-0.126052 h 0.003 c 0.11739,-0.08803 0.20315,-0.214108 0.25383,-0.353432 l 0.003,-0.0029 1.36549,-4.197916 0.003,-0.0058 c 0.0163,-0.05992 0.0267,-0.111964 0.0279,-0.17689 0.007,-0.142157 -0.053,-0.296318 -0.15753,-0.398774 -0.1031,-0.107189 -0.255,-0.168184 -0.39921,-0.168184 -0.12661,0 -0.25844,0.0455 -0.35709,0.127887 -0.0931,0.07762 -0.16196,0.184397 -0.19783,0.299164 l -0.9277,3.049586 -0.93328,-3.033788 c -0.0383,-0.127843 -0.12448,-0.241685 -0.23255,-0.316906 -0.10522,-0.07986 -0.23806,-0.125943 -0.36966,-0.125943 z m -9.13157,7.28e-4 c -0.14824,0 -0.30096,0.06763 -0.40298,0.175042 -0.10177,0.104058 -0.16258,0.25321 -0.16258,0.396953 v 4.292793 c 0,0.145629 0.0602,0.296413 0.16452,0.400609 0.10382,0.103971 0.2555,0.16498 0.40104,0.164958 0.14432,0 0.29328,-0.06057 0.39738,-0.163116 0.10796,-0.102537 0.17462,-0.254376 0.17462,-0.40248 v -1.598459 h 2.13071 v 1.598459 c 0,0.146481 0.0606,0.296842 0.16442,0.400609 0.10372,0.103767 0.25738,0.164958 0.40297,0.164958 0.14376,0 0.29149,-0.0613 0.39555,-0.163116 0.10775,-0.10242 0.17689,-0.254186 0.17689,-0.402451 v -4.292953 c 0,-0.147471 -0.0682,-0.298167 -0.17506,-0.400623 -0.1024,-0.105041 -0.25124,-0.171387 -0.39738,-0.171387 -0.14879,0 -0.30235,0.06683 -0.40437,0.175049 -0.10138,0.103621 -0.16302,0.252373 -0.16302,0.396961 v 1.596632 h -2.13071 v -1.596632 c 0,-0.146925 -0.067,-0.296339 -0.17322,-0.398796 -0.10238,-0.105987 -0.25185,-0.173214 -0.39878,-0.173214 z m 28.4559,0.03283 c -0.14823,0 -0.3001,0.06894 -0.40255,0.176884 -0.10179,0.104116 -0.16301,0.253669 -0.16301,0.397383 v 4.257651 c 0,0.145614 0.0603,0.296412 0.16441,0.400601 0.10422,0.104248 0.2556,0.164849 0.40115,0.164849 0.14388,2.9e-5 0.29377,-0.06181 0.39737,-0.163014 0.10734,-0.102027 0.17656,-0.253305 0.17656,-0.402436 v -1.235789 h 1.01205 c 0.46908,0 0.87017,-0.07803 1.19732,-0.252424 0.31304,-0.166982 0.5567,-0.394071 0.70397,-0.677211 0.13908,-0.267516 0.20987,-0.561817 0.20987,-0.86848 0,-0.306692 -0.0707,-0.600833 -0.20987,-0.868378 -0.1472,-0.282995 -0.39072,-0.510156 -0.70397,-0.677211 -0.32733,-0.17459 -0.72842,-0.252425 -1.19732,-0.252425 z m -12.13164,1.029573 c 0.33299,0 0.60491,0.07304 0.83518,0.213627 0.2353,0.143547 0.4065,0.329924 0.53031,0.577492 0.12481,0.249651 0.18902,0.533424 0.18902,0.861491 0,0.328104 -0.0642,0.610079 -0.18902,0.859679 -0.12381,0.247561 -0.29501,0.435969 -0.53031,0.57953 -0.23008,0.140424 -0.50201,0.213416 -0.83518,0.213416 -0.33821,0 -0.61258,-0.07344 -0.84205,-0.213416 -0.22974,-0.143081 -0.4014,-0.331802 -0.52526,-0.57953 -0.12469,-0.249411 -0.18891,-0.531349 -0.18891,-0.859679 0,-0.328307 0.0642,-0.612022 0.18891,-0.861491 0.12386,-0.247735 0.29556,-0.434426 0.52526,-0.577492 0.22961,-0.140146 0.50403,-0.213627 0.84205,-0.213627 z m 6.98476,0 c 0.33296,0 0.60295,0.07304 0.83324,0.213627 0.23527,0.143547 0.40846,0.329946 0.53225,0.577492 0.1248,0.249651 0.18902,0.533424 0.18902,0.861491 0,0.328104 -0.0642,0.610079 -0.18902,0.859679 -0.12379,0.247561 -0.29698,0.435969 -0.53225,0.57953 -0.2301,0.140424 -0.50012,0.213416 -0.83324,0.213416 -0.33828,0 -0.61259,-0.07344 -0.84205,-0.213416 -0.23028,-0.143219 -0.40115,-0.331431 -0.52516,-0.57953 -0.12474,-0.249411 -0.18902,-0.531349 -0.18902,-0.859679 0,-0.328307 0.0643,-0.612022 0.18902,-0.861491 0.12401,-0.2481 0.29491,-0.434345 0.52516,-0.577492 0.2296,-0.140146 0.50397,-0.213627 0.84205,-0.213627 z m 5.72081,0.07507 h 0.95091 c 0.44072,0 0.70519,0.09282 0.81938,0.201491 l 0.003,0.0029 0.003,0.0022 c 0.14879,0.138116 0.21029,0.280061 0.21029,0.488184 0,0.208102 -0.0615,0.352398 -0.21029,0.490557 h -0.003 l -0.003,0.0029 c -0.11404,0.108426 -0.37849,0.20149 -0.81938,0.20149 h -0.95091 z"
       style="color:#000000;font-style:normal;font-variant:normal;font-weight:normal;font-stretch:normal;font-size:medium;line-height:normal;font-family:sans-serif;font-variant-ligatures:normal;font-variant-position:normal;font-variant-caps:normal;font-variant-numeric:normal;font-variant-alternates:normal;font-feature-settings:normal;text-indent:0;text-align:start;text-decoration:none;text-decoration-line:none;text-decoration-style:solid;text-decoration-color:#000000;letter-spacing:normal;word-spacing:normal;text-transform:none;writing-mode:lr-tb;direction:ltr;text-orientation:mixed;dominant-baseline:auto;baseline-shift:baseline;text-anchor:start;white-space:normal;shape-padding:0;clip-rule:nonzero;display:inline;overflow:visible;visibility:visible;opacity:1;isolation:auto;mix-blend-mode:normal;color-interpolation:sRGB;color-interpolation-filters:linearRGB;solid-color:#000000;solid-opacity:1;vector-effect:none;fill:#0f0f0f;fill-opacity:1;fill-rule:nonzero;stroke:none;stroke-width:3.15524936;stroke-linecap:round;stroke-linejoin:round;stroke-miterlimit:4;stroke-dasharray:none;stroke-dashoffset:0;stroke-opacity:1;color-rendering:auto;image-rendering:auto;shape-rendering:auto;text-rendering:auto;enable-background:accumulate" />
    <rect
       inkscape:export-ydpi="349.91635"
       inkscape:export-xdpi="349.91635"
       ry="0"
       y="79.450134"
       x="0.84444702"
       height="65.775406"
       width="65.775406"
       id="rect933"
       style="opacity:1;fill:#0f0f0f;fill-opacity:1;fill-rule:nonzero;stroke:none;stroke-width:0.56762141;stroke-linecap:round;stroke-linejoin:round;stroke-miterlimit:4;stroke-dasharray:none;stroke-dashoffset:0;stroke-opacity:1" />
    <path
       sodipodi:nodetypes="ccccccssccscccccscccsscccscsccsccsccssccssccsccccccccscccccccccc"
       inkscape:connector-curvature="0"
       id="path935"
       d="m 31.129396,94.129104 c -0.185685,0 -0.335791,0.145345 -0.346442,0.328395 l 0.0029,10.960111 c 0.493557,-0.38867 0.930938,-0.73624 1.431251,-1.12779 0.799943,-0.61526 1.938597,-0.077 1.932336,0.92265 l 0.0029,18.49667 c 0.0044,0.28039 0.0029,0.52838 0.0029,0.54653 0,0.38562 0.312983,0.69849 0.698586,0.69849 0.124909,0 0.242727,-0.0324 0.343662,-0.0908 0.906804,-0.52194 0.16771,-0.0969 1.148206,-0.66334 0.201338,-0.1225 0.327958,-0.24039 0.327958,-0.49325 V 99.265668 c -0.01456,-0.432489 -0.216743,-0.817001 -0.529456,-1.073633 -1.596261,-1.327274 -3.198527,-2.65818 -4.79719,-3.986524 -0.05948,-0.04718 -0.133995,-0.07596 -0.215783,-0.07596 z m 1.83542,10.737996 v 7e-4 c -0.08283,0 -0.158944,0.0299 -0.218679,0.0782 -1.470638,1.15087 -2.955961,2.3258 -4.211239,3.31728 -0.344979,0.26575 -0.567379,0.68276 -0.567379,1.15196 v 12.05749 c 0,0.51735 0.271506,0.9698 0.678601,1.2274 1.204308,0.69127 2.40411,1.39476 3.609998,2.08063 0.105383,0.0638 0.229047,0.10057 0.361273,0.10057 0.385625,-2e-5 0.698477,-0.31237 0.698477,-0.69805 v -18.96129 c 0,-0.002 -0.0029,-0.003 -0.0029,-0.006 0,-0.0408 -0.0073,-0.08 -0.01988,-0.11627 -0.04776,-0.13524 -0.176978,-0.23239 -0.328387,-0.23298 z m -9.332426,0.29078 c -0.18752,0 -0.357319,0.0748 -0.482068,0.19579 -4.154263,4.23441 -5.384355,10.55813 -3.11085,16.04692 2.291658,5.5325 7.69905,9.14598 13.68743,9.14598 5.988393,0 11.398116,-3.61348 13.689803,-9.14598 2.272263,-5.48574 1.038141,-11.79881 -3.10547,-16.03832 -0.125069,-0.12302 -0.296216,-0.19923 -0.485512,-0.19923 -0.382713,0 -0.693002,0.31017 -0.693002,0.6929 v 2.52163 c 0.02599,0.30069 0.10515,0.59919 0.252082,0.8152 2.177895,3.20164 2.636608,7.33181 1.116835,11.00084 -1.806706,4.36189 -6.052708,7.19871 -10.773986,7.19871 -4.721264,0 -8.966807,-2.83682 -10.773572,-7.19871 -1.520377,-3.67061 -1.049462,-7.79515 1.11974,-11.00492 0.16712,-0.24729 0.24842,-0.56434 0.251339,-0.81766 6.99e-4,-0.87801 6.99e-4,-1.76884 0,-2.52026 -2.2e-5,-0.38271 -0.310295,-0.6929 -0.693024,-0.6929 z m 14.22622,5.55328 h -7.07e-4 c -0.19097,0 -0.345234,0.15327 -0.347847,0.34367 v 11.36039 0.003 c 5.1e-5,0 0,0.002 0,0.002 0,0.38561 0.31245,0.69806 0.698061,0.69806 0.147864,0 0.260753,-0.0443 0.367716,-0.10607 l 2.145003,-1.23858 c 0.394624,-0.25991 0.656796,-0.70468 0.656796,-1.21256 0.0058,-2.11717 0.0029,-4.24064 0.0029,-6.35999 -0.0058,-0.44291 -0.207556,-0.83779 -0.524397,-1.10092 -0.916669,-0.76841 -1.848852,-1.53997 -2.772561,-2.30759 -0.06057,-0.0513 -0.139477,-0.0818 -0.22513,-0.082 z"
       style="color:#000000;font-style:normal;font-variant:normal;font-weight:normal;font-stretch:normal;font-size:medium;line-height:normal;font-family:sans-serif;font-variant-ligatures:normal;font-variant-position:normal;font-variant-caps:normal;font-variant-numeric:normal;font-variant-alternates:normal;font-feature-settings:normal;text-indent:0;text-align:start;text-decoration:none;text-decoration-line:none;text-decoration-style:solid;text-decoration-color:#000000;letter-spacing:normal;word-spacing:normal;text-transform:none;writing-mode:lr-tb;direction:ltr;text-orientation:mixed;dominant-baseline:auto;baseline-shift:baseline;text-anchor:start;white-space:normal;shape-padding:0;clip-rule:nonzero;display:inline;overflow:visible;visibility:visible;opacity:1;isolation:auto;mix-blend-mode:normal;color-interpolation:sRGB;color-interpolation-filters:linearRGB;solid-color:#000000;solid-opacity:1;vector-effect:none;fill:url(#linearGradient945);fill-opacity:1;fill-rule:nonzero;stroke:none;stroke-width:3.15524936;stroke-linecap:round;stroke-linejoin:round;stroke-miterlimit:4;stroke-dasharray:none;stroke-dashoffset:0;stroke-opacity:1;color-rendering:auto;image-rendering:auto;shape-rendering:auto;text-rendering:auto;enable-background:accumulate" />
    <rect
       style="opacity:1;fill:#030344;fill-opacity:1;fill-rule:nonzero;stroke:none;stroke-width:0.56762141;stroke-linecap:round;stroke-linejoin:round;stroke-miterlimit:4;stroke-dasharray:none;stroke-dashoffset:0;stroke-opacity:1"
       id="rect937"
       width="65.775406"
       height="65.775406"
       x="72.537422"
       y="79.450134"
       ry="0"
       inkscape:export-xdpi="349.91635"
       inkscape:export-ydpi="349.91635" />
    <rect
       style="opacity:1;fill:#f5f5f5;fill-opacity:1;fill-rule:nonzero;stroke:none;stroke-width:0.56762141;stroke-linecap:round;stroke-linejoin:round;stroke-miterlimit:4;stroke-dasharray:none;stroke-dashoffset:0;stroke-opacity:1"
       id="rect939"
       width="65.775406"
       height="65.775406"
       x="144.23038"
       y="79.450134"
       ry="0"
       inkscape:export-xdpi="349.91635"
       inkscape:export-ydpi="349.91635" />
    <path
       style="color:#000000;font-style:normal;font-variant:normal;font-weight:normal;font-stretch:normal;font-size:medium;line-height:normal;font-family:sans-serif;font-variant-ligatures:normal;font-variant-position:normal;font-variant-caps:normal;font-variant-numeric:normal;font-variant-alternates:normal;font-feature-settings:normal;text-indent:0;text-align:start;text-decoration:none;text-decoration-line:none;text-decoration-style:solid;text-decoration-color:#000000;letter-spacing:normal;word-spacing:normal;text-transform:none;writing-mode:lr-tb;direction:ltr;text-orientation:mixed;dominant-baseline:auto;baseline-shift:baseline;text-anchor:start;white-space:normal;shape-padding:0;clip-rule:nonzero;display:inline;overflow:visible;visibility:visible;opacity:1;isolation:auto;mix-blend-mode:normal;color-interpolation:sRGB;color-interpolation-filters:linearRGB;solid-color:#000000;solid-opacity:1;vector-effect:none;fill:#f5f5f5;fill-opacity:1;fill-rule:nonzero;stroke:none;stroke-width:3.15524936;stroke-linecap:round;stroke-linejoin:round;stroke-miterlimit:4;stroke-dasharray:none;stroke-dashoffset:0;stroke-opacity:1;color-rendering:auto;image-rendering:auto;shape-rendering:auto;text-rendering:auto;enable-background:accumulate"
       d="m 102.82397,94.129104 c -0.18569,0 -0.3358,0.145352 -0.34644,0.328402 l 0.004,10.960114 c 0.49355,-0.38868 0.93094,-0.73625 1.43124,-1.1278 0.79995,-0.61526 1.93861,-0.077 1.93234,0.92265 l 0.003,18.49666 c 0.004,0.2804 0.004,0.52839 0.004,0.54654 0,0.38562 0.31298,0.6985 0.69858,0.6985 0.1249,0 0.24272,-0.0325 0.34366,-0.0908 0.9068,-0.52195 0.16771,-0.0969 1.1482,-0.66335 0.20134,-0.1225 0.32797,-0.2404 0.32797,-0.49325 V 99.265668 c -0.0146,-0.432489 -0.21675,-0.817001 -0.52945,-1.073626 -1.59627,-1.327281 -3.19854,-2.65818 -4.79721,-3.986531 -0.0595,-0.04718 -0.13398,-0.07596 -0.21577,-0.07596 z m 1.83541,10.737996 v 7e-4 c -0.0828,0 -0.15894,0.0299 -0.21868,0.0782 -1.47063,1.15087 -2.95595,2.32579 -4.21124,3.31727 -0.344975,0.26577 -0.567383,0.68276 -0.567383,1.15197 v 12.05749 c 0,0.51735 0.271521,0.9698 0.678613,1.2274 1.20431,0.69127 2.40411,1.39476 3.60999,2.08063 0.10539,0.0639 0.22905,0.10058 0.36128,0.10058 0.38563,-3e-5 0.69848,-0.31238 0.69848,-0.69807 V 105.222 c 0,-0.002 -0.003,-0.003 -0.003,-0.005 0,-0.0407 -0.007,-0.08 -0.0199,-0.11628 -0.0478,-0.13523 -0.17697,-0.23238 -0.32838,-0.23297 z m -9.332423,0.29077 c -0.18752,0 -0.35732,0.0748 -0.482076,0.19581 -4.154248,4.2344 -5.384351,10.55812 -3.110836,16.04691 2.291651,5.53251 7.699044,9.14598 13.687435,9.14598 5.98838,0 11.39811,-3.61347 13.68979,-9.14598 2.27227,-5.48575 1.03814,-11.7988 -3.10547,-16.03832 -0.12507,-0.12302 -0.29621,-0.19923 -0.4855,-0.19923 -0.38272,0 -0.69301,0.31017 -0.69301,0.6929 v 2.52163 c 0.026,0.30069 0.10515,0.59919 0.25209,0.81521 2.17789,3.20163 2.6366,7.3318 1.11683,11.00083 -1.80671,4.36189 -6.05271,7.19871 -10.77399,7.19871 -4.72126,0 -8.966809,-2.83682 -10.773566,-7.19871 -1.520378,-3.67061 -1.04947,-7.79515 1.119732,-11.00492 0.16712,-0.2473 0.24842,-0.56434 0.251332,-0.81766 7.06e-4,-0.87801 7.06e-4,-1.76884 0,-2.52026 -1.4e-5,-0.38271 -0.310288,-0.6929 -0.693009,-0.6929 z m 14.226223,5.5533 h -7e-4 c -0.19098,0 -0.34525,0.15325 -0.34785,0.34365 v 11.3604 0.003 c 5e-5,0 0,0.002 0,0.002 0,0.38561 0.31246,0.69806 0.69805,0.69806 0.14787,0 0.26076,-0.0443 0.36773,-0.10607 l 2.145,-1.23858 c 0.39462,-0.25991 0.6568,-0.70468 0.6568,-1.21257 0.006,-2.11716 0.003,-4.24063 0.003,-6.35998 -0.006,-0.44291 -0.20756,-0.83779 -0.52441,-1.10092 -0.91667,-0.7684 -1.84885,-1.53997 -2.77255,-2.30759 -0.0607,-0.0513 -0.13948,-0.0818 -0.22513,-0.082 z"
       id="path941"
       inkscape:connector-curvature="0"
       sodipodi:nodetypes="ccccccssccscccccscccsscccscsccsccsccssccssccsccccccccscccccccccc" />
    <path
       style="color:#000000;font-style:normal;font-variant:normal;font-weight:normal;font-stretch:normal;font-size:medium;line-height:normal;font-family:sans-serif;font-variant-ligatures:normal;font-variant-position:normal;font-variant-caps:normal;font-variant-numeric:normal;font-variant-alternates:normal;font-feature-settings:normal;text-indent:0;text-align:start;text-decoration:none;text-decoration-line:none;text-decoration-style:solid;text-decoration-color:#000000;letter-spacing:normal;word-spacing:normal;text-transform:none;writing-mode:lr-tb;direction:ltr;text-orientation:mixed;dominant-baseline:auto;baseline-shift:baseline;text-anchor:start;white-space:normal;shape-padding:0;clip-rule:nonzero;display:inline;overflow:visible;visibility:visible;opacity:1;isolation:auto;mix-blend-mode:normal;color-interpolation:sRGB;color-interpolation-filters:linearRGB;solid-color:#000000;solid-opacity:1;vector-effect:none;fill:#0f0f0f;fill-opacity:1;fill-rule:nonzero;stroke:none;stroke-width:3.15524936;stroke-linecap:round;stroke-linejoin:round;stroke-miterlimit:4;stroke-dasharray:none;stroke-dashoffset:0;stroke-opacity:1;color-rendering:auto;image-rendering:auto;shape-rendering:auto;text-rendering:auto;enable-background:accumulate"
       d="m 174.52016,94.129104 c -0.18569,0 -0.3358,0.145352 -0.34645,0.328402 l 0.004,10.960114 c 0.49355,-0.38868 0.93094,-0.73625 1.43125,-1.1278 0.79994,-0.61526 1.9386,-0.077 1.93234,0.92265 l 0.003,18.49666 c 0.004,0.2804 0.004,0.52839 0.004,0.54654 0,0.38562 0.31299,0.6985 0.69859,0.6985 0.1249,0 0.24272,-0.0325 0.34366,-0.0908 0.9068,-0.52195 0.16771,-0.0969 1.1482,-0.66335 0.20134,-0.1225 0.32797,-0.2404 0.32797,-0.49325 V 99.265668 c -0.0146,-0.432489 -0.21677,-0.817001 -0.52947,-1.073626 -1.59626,-1.327281 -3.19852,-2.65818 -4.79719,-3.986531 -0.0595,-0.04718 -0.13399,-0.07596 -0.21578,-0.07596 z m 1.83541,10.737996 v 7.1e-4 c -0.0828,0 -0.15894,0.0298 -0.21868,0.0782 -1.47063,1.15087 -2.95596,2.32579 -4.21124,3.31727 -0.34497,0.26577 -0.56738,0.68276 -0.56738,1.15197 v 12.05749 c 0,0.51735 0.27152,0.96979 0.6786,1.22739 1.20431,0.69128 2.40412,1.39477 3.61,2.08063 0.10539,0.0639 0.22905,0.10058 0.36127,0.10058 0.38564,-2e-5 0.69849,-0.31237 0.69849,-0.69806 V 105.222 c 0,-0.002 -0.003,-0.003 -0.003,-0.005 0,-0.0407 -0.007,-0.08 -0.0199,-0.11628 -0.0478,-0.13523 -0.17697,-0.23238 -0.32839,-0.23297 z m -9.33243,0.29077 c -0.18751,0 -0.35731,0.0748 -0.48206,0.19581 -4.15426,4.2344 -5.38435,10.55812 -3.11085,16.04691 2.29166,5.53251 7.69905,9.14598 13.68743,9.14598 5.98839,0 11.39811,-3.61347 13.68979,-9.14598 2.27227,-5.48575 1.03815,-11.7988 -3.10546,-16.03832 -0.12507,-0.12302 -0.29622,-0.19923 -0.48551,-0.19923 -0.38272,0 -0.693,0.31017 -0.693,0.6929 v 2.52163 c 0.026,0.30069 0.10515,0.59919 0.25208,0.81521 2.17789,3.20163 2.63661,7.3318 1.11684,11.00083 -1.80671,4.36189 -6.05271,7.19871 -10.77399,7.19871 -4.72127,0 -8.9668,-2.83682 -10.77357,-7.19871 -1.52038,-3.67061 -1.04947,-7.79515 1.11973,-11.00492 0.16713,-0.2473 0.24842,-0.56434 0.25134,-0.81766 7.1e-4,-0.87801 7.1e-4,-1.76884 0,-2.52026 -1e-5,-0.38271 -0.31029,-0.6929 -0.69301,-0.6929 z m 14.22623,5.5533 h -7.3e-4 c -0.19098,0 -0.34524,0.15325 -0.34785,0.34365 v 11.3604 0.003 c 5e-5,0 0,0.002 0,0.002 0,0.38561 0.31246,0.69806 0.69806,0.69806 0.14786,0 0.26076,-0.0443 0.36773,-0.10607 l 2.145,-1.23858 c 0.39461,-0.25991 0.65679,-0.70468 0.65679,-1.21257 0.006,-2.11716 0.003,-4.24063 0.003,-6.35998 -0.006,-0.44291 -0.20755,-0.83779 -0.5244,-1.10092 -0.91667,-0.7684 -1.84885,-1.53997 -2.77256,-2.30759 -0.0607,-0.0513 -0.13947,-0.0818 -0.22512,-0.082 z"
       id="path943"
       inkscape:connector-curvature="0"
       sodipodi:nodetypes="ccccccssccscccccscccsscccscsccsccsccssccssccsccccccccscccccccccc" />
    <flowRoot
       xml:space="preserve"
       id="flowRoot899"
       style="fill:black;fill-opacity:1;stroke:none;font-family:sans-serif;font-style:normal;font-weight:normal;font-size:29.33333333px;line-height:20.64999962;letter-spacing:0px;word-spacing:0px"><flowRegion
         id="flowRegion901"><rect
           id="rect903"
           width="52.325901"
           height="65.053825"
           x="970.15045"
           y="703.91248" /></flowRegion><flowPara
         id="flowPara905"></flowPara></flowRoot>    <path
       style="color:#000000;font-style:normal;font-variant:normal;font-weight:normal;font-stretch:normal;font-size:medium;line-height:normal;font-family:sans-serif;font-variant-ligatures:normal;font-variant-position:normal;font-variant-caps:normal;font-variant-numeric:normal;font-variant-alternates:normal;font-feature-settings:normal;text-indent:0;text-align:start;text-decoration:none;text-decoration-line:none;text-decoration-style:solid;text-decoration-color:#000000;letter-spacing:normal;word-spacing:normal;text-transform:none;writing-mode:lr-tb;direction:ltr;text-orientation:mixed;dominant-baseline:auto;baseline-shift:baseline;text-anchor:start;white-space:normal;shape-padding:0;clip-rule:nonzero;display:inline;overflow:visible;visibility:visible;opacity:1;isolation:auto;mix-blend-mode:normal;color-interpolation:sRGB;color-interpolation-filters:linearRGB;solid-color:#000000;solid-opacity:1;vector-effect:none;fill:url(#linearGradient909);fill-opacity:1;fill-rule:nonzero;stroke:none;stroke-width:3.15524936;stroke-linecap:round;stroke-linejoin:round;stroke-miterlimit:4;stroke-dasharray:none;stroke-dashoffset:0;stroke-opacity:1;color-rendering:auto;image-rendering:auto;shape-rendering:auto;text-rendering:auto;enable-background:accumulate"
       d="m 245.15882,76.91695 c -0.18568,0 -0.33579,0.14534 -0.34644,0.32839 l 0.003,10.96011 c 0.49356,-0.38867 0.93094,-0.73624 1.43125,-1.12779 0.79995,-0.61526 1.9386,-0.077 1.93234,0.92265 l 0.003,18.49667 c 0.004,0.28039 0.003,0.52838 0.003,0.54653 0,0.38562 0.31298,0.69849 0.69859,0.69849 0.1249,0 0.24272,-0.0324 0.34366,-0.0908 0.9068,-0.52194 0.16771,-0.0969 1.1482,-0.66334 0.20134,-0.1225 0.32796,-0.24039 0.32796,-0.49325 v -24.4411 c -0.0146,-0.43249 -0.21674,-0.817 -0.52945,-1.07363 -1.59627,-1.32728 -3.19853,-2.65818 -4.79719,-3.98653 -0.0595,-0.0472 -0.134,-0.076 -0.21579,-0.076 z m 1.83542,10.73799 v 7e-4 c -0.0828,0 -0.15894,0.0299 -0.21867,0.0782 -1.47064,1.15087 -2.95597,2.3258 -4.21124,3.31728 -0.34498,0.26575 -0.56738,0.68276 -0.56738,1.15196 v 12.05749 c 0,0.51735 0.2715,0.9698 0.6786,1.2274 1.20431,0.69127 2.40411,1.39476 3.61,2.08063 0.10538,0.0638 0.22904,0.10057 0.36127,0.10057 0.38562,-2e-5 0.69848,-0.31237 0.69848,-0.69805 V 88.00983 c 0,-0.002 -0.003,-0.003 -0.003,-0.006 0,-0.0408 -0.007,-0.08 -0.0199,-0.11627 -0.0478,-0.13524 -0.17698,-0.23239 -0.32839,-0.23298 z m -9.33242,0.29078 c -0.18752,0 -0.35732,0.0748 -0.48207,0.19579 -4.15426,4.23441 -5.38435,10.55813 -3.11085,16.04692 2.29166,5.5325 7.69905,9.14598 13.68743,9.14598 5.98839,0 11.39812,-3.61348 13.6898,-9.14598 2.27227,-5.48574 1.03814,-11.79881 -3.10547,-16.03832 -0.12507,-0.12302 -0.29621,-0.19923 -0.48551,-0.19923 -0.38271,0 -0.693,0.31017 -0.693,0.6929 v 2.52163 c 0.026,0.30069 0.10515,0.59919 0.25208,0.8152 2.1779,3.20164 2.63661,7.33181 1.11684,11.00084 -1.80671,4.36189 -6.05271,7.19871 -10.77399,7.19871 -4.72126,0 -8.96681,-2.83682 -10.77357,-7.19871 -1.52038,-3.67061 -1.04946,-7.79515 1.11974,-11.00492 0.16712,-0.24729 0.24842,-0.56434 0.25134,-0.81766 7e-4,-0.87801 7e-4,-1.76884 0,-2.52026 -2e-5,-0.38271 -0.3103,-0.6929 -0.69303,-0.6929 z m 14.22622,5.55328 h -7.1e-4 c -0.19097,0 -0.34523,0.15327 -0.34785,0.34367 v 11.36039 0.003 c 6e-5,0 0,0.002 0,0.002 0,0.38561 0.31245,0.69806 0.69807,0.69806 0.14786,0 0.26075,-0.0443 0.36771,-0.10607 l 2.145,-1.23858 c 0.39463,-0.25991 0.6568,-0.70468 0.6568,-1.21256 0.006,-2.11717 0.003,-4.24064 0.003,-6.35999 -0.006,-0.44291 -0.20756,-0.83779 -0.5244,-1.10092 -0.91667,-0.76841 -1.84885,-1.53997 -2.77256,-2.30759 -0.0606,-0.0513 -0.13947,-0.0818 -0.22513,-0.082 z"
       id="path907"
       inkscape:connector-curvature="0"
       sodipodi:nodetypes="ccccccssccscccccscccsscccscsccsccsccssccssccsccccccccscccccccccc" />
    <path
       sodipodi:nodetypes="ccccccccccccscsccscsccccscccsccccccscscscscccscccccccscccccccsscccccccscccccccssccsccccccccccccccccsccccccccsccccccccscccccsscsssccsccscscsscscsccscsscsssscscsccsccsssccsscsccsccssccsccsccsccscscccccccscccsccc"
       inkscape:connector-curvature="0"
       id="path911"
       d="m 271.40642,94.408716 c -0.71829,0 -1.35921,0.12199 -1.91124,0.38383 -0.53371,0.24891 -0.96289,0.6075 -1.25598,1.06661 -0.28912,0.44442 -0.43662,0.95524 -0.43662,1.4959 0,0.61078 0.17936,1.16253 0.55599,1.5706 0.33709,0.36517 0.74543,0.64648 1.21056,0.83255 h 0.007 l 0.005,0.005 c 0.43045,0.16359 0.97448,0.330584 1.64395,0.504154 0.48901,0.12813 0.86299,0.23898 1.10888,0.3284 l 0.007,0.004 h 0.007 c 0.22046,0.0734 0.38595,0.17061 0.51303,0.28614 l 0.007,0.005 0.007,0.007 c 0.10444,0.0907 0.12831,0.14621 0.12831,0.27632 0,0.35524 -0.0923,0.52282 -0.33497,0.6822 -0.24267,0.15937 -0.69408,0.27708 -1.35764,0.27708 -0.79702,0 -1.53374,-0.15288 -2.22508,-0.46098 h -0.005 c -0.12918,-0.057 -0.27037,-0.0895 -0.41135,-0.0895 -0.25308,0 -0.51859,0.11707 -0.6911,0.30404 -0.15884,0.17341 -0.25197,0.41874 -0.25197,0.65452 0,0.19923 0.0662,0.39215 0.17166,0.55034 l 0.007,0.0105 0.007,0.007 c 0.10812,0.14884 0.26158,0.27318 0.43324,0.34479 0.95857,0.41363 1.98781,0.62034 3.07552,0.62034 0.66712,0 1.27576,-0.10899 1.81298,-0.34063 0.53209,-0.22935 0.97244,-0.56039 1.28446,-0.98947 v -0.004 c 0.31115,-0.43752 0.47303,-0.95011 0.47303,-1.49024 0,-0.62697 -0.16745,-1.18804 -0.5315,-1.607204 -0.32173,-0.37828 -0.72665,-0.66466 -1.1894,-0.84478 -0.42141,-0.16675 -0.95411,-0.32509 -1.60983,-0.48286 l -0.005,-0.005 c -0.48141,-0.1104 -0.86015,-0.21127 -1.13076,-0.30084 -0.23366,-0.0867 -0.41499,-0.1965 -0.56167,-0.32839 -0.10356,-0.10443 -0.1506,-0.20715 -0.1506,-0.40324 0,-0.30339 0.0907,-0.46043 0.38457,-0.64149 0.31843,-0.19111 0.75879,-0.30481 1.3454,-0.30481 0.62728,0 1.23376,0.10092 1.82276,0.30481 0.10215,0.04 0.20144,0.073 0.34063,0.073 0.25472,0 0.52525,-0.1204 0.69108,-0.3163 0.14621,-0.17307 0.23973,-0.40541 0.23973,-0.63902 0,-0.38157 -0.27392,-0.77618 -0.63242,-0.90648 -0.78033,-0.2894 -1.64448,-0.43005 -2.5844,-0.43005 z m 36.3686,0 c -0.91934,0 -1.75316,0.20269 -2.47046,0.62035 -0.71092,0.41396 -1.273,0.9988 -1.65945,1.72677 -0.38588,0.72698 -0.58507,1.55737 -0.60242,2.47066 v 0.009 0.007 c 0.0179,0.913184 0.21643,1.746004 0.60242,2.473084 0.38652,0.72808 0.94875,1.30974 1.65945,1.72356 0.71706,0.41753 1.55089,0.62432 2.47046,0.62432 0.91965,0 1.74774,-0.20556 2.45763,-0.62432 0.71081,-0.41382 1.26967,-0.99548 1.65622,-1.72356 0.39384,-0.73407 0.59708,-1.56611 0.6145,-2.473084 v -0.007 -0.009 c -0.0179,-0.90708 -0.21973,-1.7341 -0.6145,-2.46084 -0.38602,-0.73442 -0.9453,-1.32266 -1.65622,-1.73659 -0.71015,-0.41882 -1.53825,-0.62035 -2.45763,-0.62035 z m 12.25973,0 c -0.91936,0 -1.75653,0.20269 -2.47387,0.62035 -0.71089,0.41396 -1.26961,0.9988 -1.65602,1.72677 -0.38594,0.72698 -0.58409,1.55749 -0.60152,2.47066 v 0.009 0.007 c 0.0179,0.913184 0.21551,1.746004 0.60152,2.473084 0.38648,0.72808 0.94532,1.30974 1.65602,1.72356 0.71711,0.41753 1.55421,0.62432 2.47387,0.62432 0.91852,0 1.74574,-0.20658 2.45518,-0.62432 0.7107,-0.41382 1.2729,-0.99548 1.65945,-1.72356 0.39392,-0.73407 0.5971,-1.56611 0.6145,-2.473084 v -0.007 -0.009 c -0.0179,-0.90708 -0.22311,-1.7341 -0.61791,-2.46084 -0.38599,-0.73442 -0.9452,-1.32266 -1.65604,-1.73659 -0.70969,-0.41785 -1.53694,-0.62035 -2.45518,-0.62035 z m -24.88444,0.0607 c -0.23655,0 -0.47547,0.0778 -0.66656,0.21786 -0.1867,0.13462 -0.32731,0.33675 -0.39344,0.55603 v 0.005 c 0,0 -0.005,0 -0.005,0.005 l -1.63396,5.324974 -1.62849,-5.355894 c -0.0628,-0.20129 -0.18337,-0.38889 -0.34706,-0.52529 -0.17183,-0.14322 -0.40437,-0.22426 -0.62698,-0.22426 l -0.0123,-0.004 c -0.25775,0 -0.52932,0.0997 -0.71616,0.28538 -0.18458,0.18398 -0.27702,0.46436 -0.26426,0.71616 v 0.005 c 0.004,0.11128 0.0228,0.19781 0.0497,0.29763 l 0.005,0.0123 2.39995,7.368014 0.005,0.007 c 0.0871,0.23902 0.22579,0.455 0.42116,0.6113 l 0.0123,0.009 0.0123,0.0105 c 0.20108,0.13813 0.44681,0.21199 0.69089,0.21199 0.25129,0 0.50543,-0.0816 0.7073,-0.23312 l 0.004,-0.005 c 0.20529,-0.15709 0.36185,-0.38123 0.43645,-0.62996 l 1.54233,-4.879624 1.53983,4.879624 c 0.0723,0.24069 0.2151,0.46069 0.41137,0.62017 l 0.0123,0.0105 0.0123,0.0105 c 0.20599,0.14551 0.45832,0.2269 0.70956,0.2269 0.24384,0 0.49065,-0.076 0.68864,-0.22125 h 0.005 c 0.20604,-0.15446 0.35655,-0.37583 0.44552,-0.62034 l 0.005,-0.007 2.39671,-7.368244 0.005,-0.0105 c 0.0286,-0.10497 0.0469,-0.19652 0.0488,-0.31047 0.0105,-0.2495 -0.0932,-0.5201 -0.2765,-0.69994 -0.18096,-0.18812 -0.44756,-0.29519 -0.7007,-0.29519 -0.22223,0 -0.45362,0.0799 -0.62675,0.22447 -0.16341,0.13621 -0.28427,0.32365 -0.34725,0.52509 l -1.62831,5.352684 -1.63811,-5.324954 c -0.067,-0.2244 -0.21849,-0.42421 -0.40817,-0.55622 -0.18469,-0.14007 -0.41785,-0.22107 -0.64882,-0.22107 z m -16.02789,0.001 c -0.26017,0 -0.52821,0.11865 -0.70728,0.30725 -0.1787,0.18263 -0.28538,0.44442 -0.28538,0.69673 v 7.534764 c 0,0.2556 0.10567,0.52027 0.28877,0.70316 0.18223,0.18249 0.44846,0.28956 0.70389,0.28952 0.25333,0 0.51479,-0.10636 0.69751,-0.28629 0.18947,-0.17991 0.30649,-0.44644 0.30649,-0.70639 v -2.80562 h 3.73985 v 2.80564 c 0,0.25709 0.10637,0.52102 0.2886,0.70314 0.18206,0.18214 0.45175,0.28954 0.70729,0.28954 0.25232,0 0.51163,-0.10777 0.69428,-0.28631 0.18911,-0.17977 0.31046,-0.44614 0.31046,-0.70637 v -7.535064 c 0,-0.25883 -0.11953,-0.52334 -0.30725,-0.70316 -0.17972,-0.1844 -0.44096,-0.30084 -0.69749,-0.30084 -0.26117,0 -0.53067,0.11725 -0.70975,0.30725 -0.17798,0.18187 -0.28614,0.44298 -0.28614,0.69675 v 2.80243 h -3.73985 v -2.80243 c 0,-0.25788 -0.11777,-0.52014 -0.30405,-0.69996 -0.1797,-0.18604 -0.44204,-0.30404 -0.69995,-0.30404 z m 49.94619,0.0577 c -0.26018,0 -0.52674,0.12111 -0.70656,0.31045 -0.17868,0.18275 -0.2861,0.44526 -0.2861,0.6975 v 7.473094 c 0,0.25559 0.10584,0.52026 0.28857,0.70315 0.18293,0.18297 0.44863,0.28933 0.70409,0.28933 0.25254,6e-5 0.51564,-0.10829 0.69748,-0.28613 0.18841,-0.17907 0.30992,-0.44458 0.30992,-0.70635 v -2.16906 h 1.77637 c 0.82331,0 1.52731,-0.13691 2.10153,-0.44307 0.54944,-0.29308 0.97713,-0.691684 1.23562,-1.188654 0.24411,-0.46955 0.36837,-0.98611 0.36837,-1.52438 0,-0.53829 -0.1241,-1.05459 -0.36837,-1.52419 -0.25839,-0.49671 -0.68582,-0.89541 -1.23562,-1.18864 -0.57453,-0.30646 -1.27853,-0.44305 -2.10153,-0.44305 z m -21.29359,1.8071 c 0.58445,0 1.06173,0.12831 1.4659,0.37499 0.41299,0.25194 0.7135,0.57908 0.93079,1.0136 0.21909,0.4382 0.33179,0.93628 0.33179,1.51211 0,0.57589 -0.11286,1.070824 -0.33179,1.508924 -0.21729,0.43453 -0.5178,0.76521 -0.93079,1.01719 -0.40384,0.24648 -0.88113,0.37459 -1.4659,0.37459 -0.59365,0 -1.07522,-0.12883 -1.47798,-0.37459 -0.40326,-0.25114 -0.70456,-0.58237 -0.92196,-1.01719 -0.21884,-0.43778 -0.33157,-0.932634 -0.33157,-1.508924 0,-0.57625 0.11286,-1.07422 0.33157,-1.51211 0.2174,-0.43482 0.51877,-0.7625 0.92196,-1.0136 0.403,-0.24598 0.88465,-0.37499 1.47798,-0.37499 z m 12.25973,0 c 0.58442,0 1.05831,0.12831 1.4625,0.37499 0.41296,0.25194 0.71695,0.57911 0.93423,1.0136 0.21905,0.4382 0.33175,0.93628 0.33175,1.51211 0,0.57589 -0.11286,1.070824 -0.33175,1.508924 -0.21728,0.43453 -0.52127,0.76521 -0.93423,1.01719 -0.40388,0.24648 -0.8778,0.37459 -1.4625,0.37459 -0.59375,0 -1.07523,-0.12883 -1.47799,-0.37459 -0.40418,-0.25137 -0.70409,-0.58172 -0.92177,-1.01719 -0.21895,-0.43778 -0.33175,-0.932634 -0.33175,-1.508924 0,-0.57625 0.11286,-1.07422 0.33175,-1.51211 0.21768,-0.43547 0.51765,-0.76235 0.92177,-1.0136 0.40301,-0.24598 0.88459,-0.37499 1.47799,-0.37499 z m 10.04126,0.13182 h 1.66904 c 0.77355,0 1.23775,0.16306 1.43818,0.35366 l 0.005,0.005 0.005,0.004 c 0.26118,0.24241 0.36913,0.49157 0.36913,0.85686 0,0.36526 -0.10795,0.61854 -0.36913,0.86104 h -0.005 l -0.005,0.005 c -0.20018,0.1903 -0.66435,0.35365 -1.43818,0.35365 h -1.66904 z"
       style="color:#000000;font-style:normal;font-variant:normal;font-weight:normal;font-stretch:normal;font-size:medium;line-height:normal;font-family:sans-serif;font-variant-ligatures:normal;font-variant-position:normal;font-variant-caps:normal;font-variant-numeric:normal;font-variant-alternates:normal;font-feature-settings:normal;text-indent:0;text-align:start;text-decoration:none;text-decoration-line:none;text-decoration-style:solid;text-decoration-color:#000000;letter-spacing:normal;word-spacing:normal;text-transform:none;writing-mode:lr-tb;direction:ltr;text-orientation:mixed;dominant-baseline:auto;baseline-shift:baseline;text-anchor:start;white-space:normal;shape-padding:0;clip-rule:nonzero;display:inline;overflow:visible;visibility:visible;opacity:1;isolation:auto;mix-blend-mode:normal;color-interpolation:sRGB;color-interpolation-filters:linearRGB;solid-color:#000000;solid-opacity:1;vector-effect:none;fill:url(#linearGradient913);fill-opacity:1;fill-rule:nonzero;stroke:none;stroke-width:3.15524912;stroke-linecap:round;stroke-linejoin:round;stroke-miterlimit:4;stroke-dasharray:none;stroke-dashoffset:0;stroke-opacity:1;color-rendering:auto;image-rendering:auto;shape-rendering:auto;text-rendering:auto;enable-background:accumulate" />
    <rect
       style="opacity:0;fill:#606060;fill-opacity:0.03333334;fill-rule:nonzero;stroke:none;stroke-width:0.10100001;stroke-linecap:round;stroke-linejoin:round;stroke-miterlimit:4;stroke-dasharray:none;stroke-dashoffset:0;stroke-opacity:1;paint-order:markers fill stroke"
       id="rect919"
       width="40"
       height="40"
       x="235.73172"
       y="149.98528"
       inkscape:export-filename="C:\Users\OEM\Downloads\comodo\comodo\img\favicon.png"
       inkscape:export-xdpi="25.4"
       inkscape:export-ydpi="25.4" />
    <path
       sodipodi:nodetypes="ccccccssccscccccscccsscccscsccsccsccssccssccsccccccccscccccccccc"
       inkscape:connector-curvature="0"
       id="path915"
       d="m 252.88104,150.00517 c -0.20374,0 -0.36844,0.15949 -0.38013,0.36034 l 0.004,12.02632 c 0.54157,-0.42648 1.02149,-0.80786 1.57047,-1.23751 0.87777,-0.67511 2.12719,-0.0845 2.12033,1.01241 l 0.004,20.29605 c 0.005,0.30767 0.004,0.57978 0.004,0.59971 0,0.42313 0.34343,0.76643 0.76655,0.76643 0.13705,0 0.26632,-0.0355 0.37708,-0.0996 0.99502,-0.57271 0.18404,-0.10632 1.2599,-0.72787 0.22093,-0.13442 0.35988,-0.26377 0.35988,-0.54123 v -26.81877 c -0.016,-0.47456 -0.23783,-0.89648 -0.58096,-1.17807 -1.75156,-1.4564 -3.50969,-2.91677 -5.26387,-4.37435 -0.0652,-0.0517 -0.14704,-0.0834 -0.23679,-0.0834 z m 2.01397,11.7826 v 7.7e-4 c -0.0909,0 -0.17439,0.0329 -0.23994,0.0858 -1.6137,1.26281 -3.24352,2.55205 -4.62092,3.63999 -0.37853,0.29159 -0.62256,0.74917 -0.62256,1.26402 v 13.23046 c 0,0.56768 0.2979,1.06414 0.74461,1.3468 1.32146,0.75852 2.63799,1.53044 3.96118,2.28304 0.11564,0.0701 0.25132,0.11034 0.39642,0.11034 0.42313,-1e-5 0.76643,-0.34275 0.76643,-0.76595 v -20.80587 c 0,-0.002 -0.004,-0.004 -0.004,-0.006 0,-0.0448 -0.007,-0.0878 -0.0218,-0.1276 -0.0525,-0.14838 -0.1942,-0.25498 -0.36034,-0.25563 z m -10.24028,0.31906 c -0.20577,0 -0.39209,0.0821 -0.52897,0.21485 -4.5584,4.64632 -5.90815,11.58523 -3.41348,17.60797 2.5146,6.07071 8.44803,10.03572 15.01897,10.03572 6.57094,0 12.50694,-3.96501 15.02156,-10.03572 2.49331,-6.01939 1.13913,-12.94661 -3.40757,-17.59854 -0.13724,-0.135 -0.32503,-0.21861 -0.53275,-0.21861 -0.41993,0 -0.76041,0.34034 -0.76041,0.76031 v 2.76693 c 0.0286,0.32994 0.11537,0.65747 0.2766,0.89451 2.38977,3.51309 2.8931,8.04506 1.22549,12.07101 -1.98247,4.78623 -6.64153,7.899 -11.82211,7.899 -5.18054,0 -9.83911,-3.11277 -11.82163,-7.899 -1.66829,-4.02769 -1.15156,-8.55347 1.22867,-12.07549 0.18338,-0.27135 0.27258,-0.61924 0.27579,-0.8972 7.6e-4,-0.96343 7.6e-4,-1.94093 0,-2.76544 -2e-5,-0.41994 -0.34049,-0.76031 -0.76045,-0.76031 z m 15.61016,6.09352 h -7.8e-4 c -0.20955,0 -0.37881,0.16818 -0.38169,0.3771 v 12.46554 0.004 c 8e-5,0 0,0.002 0,0.002 0,0.42313 0.34285,0.76599 0.76598,0.76599 0.16224,0 0.28612,-0.0486 0.40349,-0.11641 l 2.35366,-1.35906 c 0.43303,-0.28519 0.72069,-0.77323 0.72069,-1.33052 0.006,-2.32313 0.004,-4.65317 0.004,-6.9787 -0.006,-0.486 -0.22775,-0.91929 -0.5754,-1.20802 -1.00585,-0.84316 -2.02871,-1.68977 -3.04229,-2.53207 -0.0665,-0.0563 -0.15303,-0.0898 -0.24702,-0.09 z"
       style="color:#000000;font-style:normal;font-variant:normal;font-weight:normal;font-stretch:normal;font-size:medium;line-height:normal;font-family:sans-serif;font-variant-ligatures:normal;font-variant-position:normal;font-variant-caps:normal;font-variant-numeric:normal;font-variant-alternates:normal;font-feature-settings:normal;text-indent:0;text-align:start;text-decoration:none;text-decoration-line:none;text-decoration-style:solid;text-decoration-color:#000000;letter-spacing:normal;word-spacing:normal;text-transform:none;writing-mode:lr-tb;direction:ltr;text-orientation:mixed;dominant-baseline:auto;baseline-shift:baseline;text-anchor:start;white-space:normal;shape-padding:0;clip-rule:nonzero;display:inline;overflow:visible;visibility:visible;opacity:1;isolation:auto;mix-blend-mode:normal;color-interpolation:sRGB;color-interpolation-filters:linearRGB;solid-color:#000000;solid-opacity:1;vector-effect:none;fill:url(#linearGradient917);fill-opacity:1;fill-rule:nonzero;stroke:none;stroke-width:3.15524936;stroke-linecap:round;stroke-linejoin:round;stroke-miterlimit:4;stroke-dasharray:none;stroke-dashoffset:0;stroke-opacity:1;color-rendering:auto;image-rendering:auto;shape-rendering:auto;text-rendering:auto;enable-background:accumulate"
       inkscape:export-filename="C:\Users\OEM\Downloads\comodo\comodo\img\favicon.png"
       inkscape:export-xdpi="25.4"
       inkscape:export-ydpi="25.4" />
  </g>
</svg>
