<?xml version="1.0" encoding="UTF-8" standalone="no"?>
<!-- Created with Inkscape (http://www.inkscape.org/) -->

<svg
   xmlns:dc="http://purl.org/dc/elements/1.1/"
   xmlns:cc="http://creativecommons.org/ns#"
   xmlns:rdf="http://www.w3.org/1999/02/22-rdf-syntax-ns#"
   xmlns:svg="http://www.w3.org/2000/svg"
   xmlns="http://www.w3.org/2000/svg"
   xmlns:xlink="http://www.w3.org/1999/xlink"
   xmlns:sodipodi="http://sodipodi.sourceforge.net/DTD/sodipodi-0.dtd"
   xmlns:inkscape="http://www.inkscape.org/namespaces/inkscape"
   width="210mm"
   height="297mm"
   viewBox="0 0 210 297"
   version="1.1"
   id="svg927"
   inkscape:version="0.92.2 (5c3e80d, 2017-08-06)"
   sodipodi:docname="shwoop-logo-long.svg">
  <defs
     id="defs921">
    <linearGradient
       inkscape:collect="always"
       xlink:href="#linearGradient1345"
       id="linearGradient913"
       gradientUnits="userSpaceOnUse"
       gradientTransform="matrix(1.2418547,0,0,1.2418547,83.215042,-167.56531)"
       x1="50.765739"
       y1="245.23027"
       x2="50.765739"
       y2="178.46667" />
    <linearGradient
       id="linearGradient1345"
       inkscape:collect="always">
      <stop
         id="stop1341"
         offset="0"
         style="stop-color:#e00060;stop-opacity:1" />
      <stop
         id="stop1343"
         offset="1"
         style="stop-color:#5511aa;stop-opacity:1" />
    </linearGradient>
    <linearGradient
       inkscape:collect="always"
       xlink:href="#linearGradient1345"
       id="linearGradient909"
       gradientUnits="userSpaceOnUse"
       gradientTransform="matrix(0.70752334,0,0,0.70752334,57.607722,-22.046761)"
       x1="50.765739"
       y1="245.23027"
       x2="50.765739"
       y2="178.46667" />
  </defs>
  <sodipodi:namedview
     id="base"
     pagecolor="#ffffff"
     bordercolor="#666666"
     borderopacity="1.0"
     inkscape:pageopacity="0.0"
     inkscape:pageshadow="2"
     inkscape:zoom="0.35"
     inkscape:cx="-64.285714"
     inkscape:cy="560"
     inkscape:document-units="mm"
     inkscape:current-layer="layer1"
     showgrid="false"
     inkscape:window-width="1920"
     inkscape:window-height="1017"
     inkscape:window-x="1912"
     inkscape:window-y="-8"
     inkscape:window-maximized="1" />
  <metadata
     id="metadata924">
    <rdf:RDF>
      <cc:Work
         rdf:about="">
        <dc:format>image/svg+xml</dc:format>
        <dc:type
           rdf:resource="http://purl.org/dc/dcmitype/StillImage" />
        <dc:title></dc:title>
      </cc:Work>
    </rdf:RDF>
  </metadata>
  <g
     inkscape:label="Layer 1"
     inkscape:groupmode="layer"
     id="layer1">
    <path
       style="color:#000000;font-style:normal;font-variant:normal;font-weight:normal;font-stretch:normal;font-size:medium;line-height:normal;font-family:sans-serif;font-variant-ligatures:normal;font-variant-position:normal;font-variant-caps:normal;font-variant-numeric:normal;font-variant-alternates:normal;font-feature-settings:normal;text-indent:0;text-align:start;text-decoration:none;text-decoration-line:none;text-decoration-style:solid;text-decoration-color:#000000;letter-spacing:normal;word-spacing:normal;text-transform:none;writing-mode:lr-tb;direction:ltr;text-orientation:mixed;dominant-baseline:auto;baseline-shift:baseline;text-anchor:start;white-space:normal;shape-padding:0;clip-rule:nonzero;display:inline;overflow:visible;visibility:visible;opacity:1;isolation:auto;mix-blend-mode:normal;color-interpolation:sRGB;color-interpolation-filters:linearRGB;solid-color:#000000;solid-opacity:1;vector-effect:none;fill:url(#linearGradient909);fill-opacity:1;fill-rule:nonzero;stroke:none;stroke-width:3.15524936;stroke-linecap:round;stroke-linejoin:round;stroke-miterlimit:4;stroke-dasharray:none;stroke-dashoffset:0;stroke-opacity:1;color-rendering:auto;image-rendering:auto;shape-rendering:auto;text-rendering:auto;enable-background:accumulate"
       d="m 92.444682,104.16627 c -0.18568,0 -0.33579,0.14534 -0.34644,0.32839 l 0.003,10.96011 c 0.49356,-0.38867 0.93094,-0.73624 1.43125,-1.12779 0.79995,-0.61526 1.9386,-0.077 1.93234,0.92265 l 0.003,18.49667 c 0.004,0.28039 0.003,0.52838 0.003,0.54653 0,0.38562 0.31298,0.69849 0.69859,0.69849 0.1249,0 0.24272,-0.0324 0.34366,-0.0908 0.9068,-0.52194 0.16771,-0.0969 1.1482,-0.66334 0.20134,-0.1225 0.32796,-0.24039 0.32796,-0.49325 v -24.4411 c -0.0146,-0.43249 -0.216741,-0.817 -0.529451,-1.07363 -1.59627,-1.32728 -3.19853,-2.65818 -4.79719,-3.98653 -0.0595,-0.0472 -0.134,-0.076 -0.21579,-0.076 z m 1.83542,10.73799 v 6.9e-4 c -0.0828,0 -0.15894,0.0299 -0.21867,0.0782 -1.47064,1.15087 -2.95597,2.3258 -4.21124,3.31728 -0.34498,0.26575 -0.56738,0.68276 -0.56738,1.15196 v 12.05749 c 0,0.51735 0.2715,0.9698 0.6786,1.2274 1.20431,0.69127 2.40411,1.39476 3.61,2.08063 0.10538,0.0638 0.22904,0.10057 0.36127,0.10057 0.38562,-2e-5 0.69848,-0.31237 0.69848,-0.69805 v -18.96128 c 0,-0.002 -0.003,-0.003 -0.003,-0.006 0,-0.0408 -0.007,-0.08 -0.0199,-0.11627 -0.0478,-0.13524 -0.17698,-0.23239 -0.32839,-0.23298 z m -9.33242,0.29078 c -0.18752,0 -0.35732,0.0748 -0.48207,0.19579 -4.15426,4.23441 -5.38435,10.55813 -3.11085,16.04692 2.29166,5.5325 7.69905,9.14598 13.68743,9.14598 5.988388,0 11.398118,-3.61348 13.689798,-9.14598 2.27227,-5.48574 1.03814,-11.79881 -3.10547,-16.03832 -0.12507,-0.12302 -0.29621,-0.19923 -0.48551,-0.19923 -0.38271,0 -0.693,0.31017 -0.693,0.6929 v 2.52163 c 0.026,0.30069 0.10515,0.59919 0.25208,0.8152 2.1779,3.20164 2.63661,7.33181 1.11684,11.00084 -1.80671,4.36189 -6.052708,7.19871 -10.773988,7.19871 -4.72126,0 -8.96681,-2.83682 -10.77357,-7.19871 -1.52038,-3.67061 -1.04946,-7.79515 1.11974,-11.00492 0.16712,-0.24729 0.24842,-0.56434 0.25134,-0.81766 6.88e-4,-0.87801 6.88e-4,-1.76884 0,-2.52026 -2e-5,-0.38271 -0.3103,-0.6929 -0.69303,-0.6929 z m 14.22622,5.55328 h -7.15e-4 c -0.190969,0 -0.345229,0.15327 -0.34785,0.34367 v 11.36039 0.003 c 6e-5,0 0,0.002 0,0.002 0,0.38561 0.312451,0.69806 0.69807,0.69806 0.14786,0 0.26075,-0.0443 0.36771,-0.10607 l 2.145003,-1.23858 c 0.39463,-0.25991 0.6568,-0.70468 0.6568,-1.21256 0.006,-2.11717 0.003,-4.24064 0.003,-6.35999 -0.006,-0.44291 -0.20756,-0.83779 -0.5244,-1.10092 -0.91667,-0.76841 -1.84885,-1.53997 -2.772562,-2.30759 -0.0606,-0.0513 -0.13947,-0.0818 -0.22513,-0.082 z"
       id="path907"
       inkscape:connector-curvature="0"
       sodipodi:nodetypes="ccccccssccscccccscccsscccscsccsccsccssccssccsccccccccscccccccccc" />
    <path
       sodipodi:nodetypes="ccccccccccccscsccscsccccscccsccccccscscscscccscccccccscccccccsscccccccscccccccssccsccccccccccccccccsccccccccsccccccccscccccsscsssccsccscscsscscsccscsscsssscscsccsccsssccsscsccsccssccsccsccsccscscccccccscccsccc"
       inkscape:connector-curvature="0"
       id="path911"
       d="m 118.69228,121.65804 c -0.71829,0 -1.35921,0.12199 -1.91124,0.38383 -0.53371,0.24891 -0.96289,0.6075 -1.25598,1.06661 -0.28912,0.44442 -0.43662,0.95524 -0.43662,1.4959 0,0.61078 0.17936,1.16253 0.55599,1.5706 0.33709,0.36517 0.74543,0.64648 1.21056,0.83255 h 0.007 l 0.005,0.005 c 0.43045,0.16359 0.97448,0.33058 1.64395,0.50415 0.48901,0.12813 0.86299,0.23898 1.10888,0.3284 l 0.007,0.004 h 0.007 c 0.22047,0.0734 0.38595,0.17061 0.51303,0.28614 l 0.007,0.005 0.007,0.007 c 0.10444,0.0907 0.12831,0.14621 0.12831,0.27632 0,0.35524 -0.0923,0.52282 -0.33497,0.6822 -0.24267,0.15937 -0.69408,0.27708 -1.35764,0.27708 -0.79702,0 -1.53374,-0.15288 -2.22508,-0.46098 h -0.005 c -0.12918,-0.057 -0.27037,-0.0895 -0.41135,-0.0895 -0.25308,0 -0.51859,0.11707 -0.6911,0.30404 -0.15884,0.17341 -0.25197,0.41874 -0.25197,0.65452 0,0.19923 0.0662,0.39215 0.17166,0.55034 l 0.007,0.0105 0.007,0.007 c 0.10812,0.14884 0.26158,0.27318 0.43324,0.34479 0.95857,0.41363 1.98782,0.62034 3.07553,0.62034 0.66711,0 1.27576,-0.10899 1.81297,-0.34063 0.53209,-0.22935 0.97245,-0.56039 1.28447,-0.98947 v -0.004 c 0.31115,-0.43752 0.47303,-0.95011 0.47303,-1.49024 0,-0.62697 -0.16746,-1.18804 -0.5315,-1.6072 -0.32174,-0.37828 -0.72666,-0.66466 -1.1894,-0.84478 -0.42141,-0.16675 -0.95412,-0.32509 -1.60984,-0.48286 l -0.005,-0.005 c -0.48141,-0.1104 -0.86015,-0.21127 -1.13076,-0.30084 -0.23366,-0.0867 -0.41498,-0.1965 -0.56166,-0.32839 -0.10356,-0.10443 -0.15061,-0.20715 -0.15061,-0.40324 0,-0.30339 0.0907,-0.46043 0.38457,-0.64149 0.31844,-0.19111 0.75879,-0.30481 1.3454,-0.30481 0.62728,0 1.23377,0.10092 1.82276,0.30481 0.10215,0.04 0.20145,0.073 0.34063,0.073 0.25472,0 0.52526,-0.1204 0.69109,-0.31631 0.1462,-0.17307 0.23972,-0.4054 0.23972,-0.63902 0,-0.38156 -0.27392,-0.77617 -0.63242,-0.90648 -0.78032,-0.28939 -1.64447,-0.43005 -2.5844,-0.43005 z m 36.3686,0 c -0.91934,0 -1.75316,0.20269 -2.47046,0.62035 -0.71092,0.41396 -1.273,0.9988 -1.65945,1.72677 -0.38588,0.72698 -0.58507,1.55737 -0.60242,2.47066 v 0.009 0.007 c 0.0179,0.91318 0.21643,1.746 0.60242,2.47308 0.38652,0.72808 0.94875,1.30974 1.65945,1.72356 0.71706,0.41753 1.55089,0.62432 2.47046,0.62432 0.91965,0 1.74774,-0.20556 2.45763,-0.62432 0.71081,-0.41382 1.26967,-0.99548 1.65622,-1.72356 0.39384,-0.73407 0.59708,-1.56611 0.6145,-2.47308 v -0.007 -0.009 c -0.0179,-0.90708 -0.21973,-1.7341 -0.6145,-2.46084 -0.38602,-0.73442 -0.9453,-1.32266 -1.65622,-1.73659 -0.71015,-0.41882 -1.53825,-0.62035 -2.45763,-0.62035 z m 12.25973,0 c -0.91936,0 -1.75653,0.20269 -2.47387,0.62035 -0.71089,0.41396 -1.26961,0.9988 -1.65602,1.72677 -0.38594,0.72698 -0.58409,1.55749 -0.60152,2.47066 v 0.009 0.007 c 0.0179,0.91318 0.21551,1.746 0.60152,2.47308 0.38648,0.72808 0.94532,1.30974 1.65602,1.72356 0.71711,0.41753 1.55421,0.62432 2.47387,0.62432 0.91852,0 1.74574,-0.20658 2.45518,-0.62432 0.7107,-0.41382 1.2729,-0.99548 1.65945,-1.72356 0.39392,-0.73407 0.5971,-1.56611 0.6145,-2.47308 v -0.007 -0.009 c -0.0179,-0.90708 -0.22311,-1.7341 -0.61791,-2.46084 -0.38599,-0.73442 -0.9452,-1.32266 -1.65604,-1.73659 -0.70969,-0.41785 -1.53694,-0.62035 -2.45518,-0.62035 z m -24.88444,0.0607 c -0.23655,0 -0.47547,0.0778 -0.66656,0.21786 -0.1867,0.13462 -0.32731,0.33675 -0.39344,0.55603 v 0.005 c 0,0 -0.005,0 -0.005,0.005 l -1.63396,5.32497 -1.62849,-5.35589 c -0.0628,-0.20129 -0.18337,-0.38889 -0.34706,-0.52529 -0.17183,-0.14322 -0.40437,-0.22426 -0.62698,-0.22426 l -0.0123,-0.004 c -0.25775,0 -0.52932,0.0997 -0.71616,0.28538 -0.18458,0.18398 -0.27702,0.46436 -0.26426,0.71616 v 0.005 c 0.004,0.11128 0.0228,0.19781 0.0497,0.29763 l 0.005,0.0123 2.39995,7.36801 0.005,0.007 c 0.0871,0.23902 0.22579,0.455 0.42116,0.6113 l 0.0123,0.009 0.0123,0.0105 c 0.20108,0.13813 0.44681,0.21199 0.69089,0.21199 0.25129,0 0.50543,-0.0816 0.7073,-0.23312 l 0.004,-0.005 c 0.20529,-0.15709 0.36185,-0.38123 0.43645,-0.62996 l 1.54233,-4.87962 1.53983,4.87962 c 0.0723,0.24069 0.2151,0.46069 0.41137,0.62017 l 0.0123,0.0105 0.0123,0.0105 c 0.20599,0.14551 0.45832,0.2269 0.70956,0.2269 0.24384,0 0.49065,-0.076 0.68864,-0.22125 h 0.005 c 0.20604,-0.15446 0.35655,-0.37583 0.44552,-0.62034 l 0.005,-0.007 2.39671,-7.36824 0.005,-0.0105 c 0.0286,-0.10497 0.0469,-0.19652 0.0488,-0.31047 0.0105,-0.2495 -0.0932,-0.5201 -0.2765,-0.69994 -0.18096,-0.18812 -0.44756,-0.29519 -0.7007,-0.29519 -0.22223,0 -0.45362,0.0799 -0.62675,0.22447 -0.16341,0.13621 -0.28427,0.32365 -0.34725,0.52509 l -1.62831,5.35268 -1.63811,-5.32495 c -0.067,-0.2244 -0.21849,-0.42421 -0.40817,-0.55622 -0.18469,-0.14007 -0.41785,-0.22107 -0.64882,-0.22107 z m -16.02789,0.001 c -0.26017,0 -0.52821,0.11865 -0.70728,0.30725 -0.1787,0.18263 -0.28538,0.44442 -0.28538,0.69673 v 7.53476 c 0,0.2556 0.10567,0.52027 0.28877,0.70316 0.18223,0.18249 0.44846,0.28956 0.70389,0.28952 0.25333,0 0.51479,-0.10636 0.69751,-0.28629 0.18947,-0.17991 0.30649,-0.44644 0.30649,-0.70639 v -2.80562 h 3.73985 v 2.80564 c 0,0.25709 0.10637,0.52102 0.2886,0.70314 0.18206,0.18214 0.45175,0.28954 0.70729,0.28954 0.25232,0 0.51163,-0.10777 0.69428,-0.28631 0.18911,-0.17977 0.31046,-0.44614 0.31046,-0.70637 v -7.53506 c 0,-0.25883 -0.11953,-0.52334 -0.30725,-0.70316 -0.17972,-0.1844 -0.44096,-0.30084 -0.69749,-0.30084 -0.26117,0 -0.53067,0.11725 -0.70975,0.30725 -0.17798,0.18187 -0.28614,0.44298 -0.28614,0.69675 v 2.80243 h -3.73985 v -2.80243 c 0,-0.25788 -0.11777,-0.52014 -0.30405,-0.69996 -0.1797,-0.18604 -0.44204,-0.30404 -0.69995,-0.30404 z m 49.94619,0.0577 c -0.26018,0 -0.52674,0.12111 -0.70656,0.31045 -0.17868,0.18275 -0.2861,0.44526 -0.2861,0.6975 v 7.47309 c 0,0.25559 0.10584,0.52026 0.28857,0.70315 0.18293,0.18297 0.44863,0.28933 0.70409,0.28933 0.25254,6e-5 0.51564,-0.10829 0.69748,-0.28613 0.18841,-0.17907 0.30992,-0.44458 0.30992,-0.70635 v -2.16906 h 1.77637 c 0.82331,0 1.52731,-0.13691 2.10153,-0.44307 0.54944,-0.29308 0.97713,-0.69168 1.23562,-1.18865 0.24411,-0.46955 0.36837,-0.98611 0.36837,-1.52438 0,-0.53829 -0.1241,-1.05459 -0.36837,-1.52419 -0.25839,-0.49671 -0.68582,-0.89541 -1.23562,-1.18864 -0.57453,-0.30646 -1.27853,-0.44305 -2.10153,-0.44305 z m -21.29359,1.8071 c 0.58445,0 1.06173,0.12831 1.4659,0.37499 0.41299,0.25194 0.7135,0.57908 0.93079,1.0136 0.21909,0.4382 0.33179,0.93628 0.33179,1.51211 0,0.57589 -0.11286,1.07082 -0.33179,1.50892 -0.21729,0.43453 -0.5178,0.76521 -0.93079,1.01719 -0.40384,0.24648 -0.88113,0.37459 -1.4659,0.37459 -0.59365,0 -1.07522,-0.12883 -1.47798,-0.37459 -0.40326,-0.25114 -0.70456,-0.58237 -0.92196,-1.01719 -0.21884,-0.43778 -0.33157,-0.93263 -0.33157,-1.50892 0,-0.57625 0.11286,-1.07422 0.33157,-1.51211 0.2174,-0.43482 0.51877,-0.7625 0.92196,-1.0136 0.403,-0.24598 0.88465,-0.37499 1.47798,-0.37499 z m 12.25973,0 c 0.58442,0 1.05831,0.12831 1.4625,0.37499 0.41296,0.25194 0.71695,0.57911 0.93423,1.0136 0.21905,0.4382 0.33175,0.93628 0.33175,1.51211 0,0.57589 -0.11286,1.07082 -0.33175,1.50892 -0.21728,0.43453 -0.52127,0.76521 -0.93423,1.01719 -0.40388,0.24648 -0.8778,0.37459 -1.4625,0.37459 -0.59375,0 -1.07523,-0.12883 -1.47799,-0.37459 -0.40418,-0.25137 -0.70409,-0.58172 -0.92177,-1.01719 -0.21895,-0.43778 -0.33175,-0.93263 -0.33175,-1.50892 0,-0.57625 0.11286,-1.07422 0.33175,-1.51211 0.21768,-0.43547 0.51765,-0.76235 0.92177,-1.0136 0.40301,-0.24598 0.88459,-0.37499 1.47799,-0.37499 z m 10.04126,0.13182 h 1.66904 c 0.77355,0 1.23775,0.16306 1.43818,0.35366 l 0.005,0.005 0.005,0.004 c 0.26118,0.24241 0.36913,0.49157 0.36913,0.85686 0,0.36526 -0.10795,0.61854 -0.36913,0.86104 h -0.005 l -0.005,0.005 c -0.20018,0.1903 -0.66435,0.35365 -1.43818,0.35365 h -1.66904 z"
       style="color:#000000;font-style:normal;font-variant:normal;font-weight:normal;font-stretch:normal;font-size:medium;line-height:normal;font-family:sans-serif;font-variant-ligatures:normal;font-variant-position:normal;font-variant-caps:normal;font-variant-numeric:normal;font-variant-alternates:normal;font-feature-settings:normal;text-indent:0;text-align:start;text-decoration:none;text-decoration-line:none;text-decoration-style:solid;text-decoration-color:#000000;letter-spacing:normal;word-spacing:normal;text-transform:none;writing-mode:lr-tb;direction:ltr;text-orientation:mixed;dominant-baseline:auto;baseline-shift:baseline;text-anchor:start;white-space:normal;shape-padding:0;clip-rule:nonzero;display:inline;overflow:visible;visibility:visible;opacity:1;isolation:auto;mix-blend-mode:normal;color-interpolation:sRGB;color-interpolation-filters:linearRGB;solid-color:#000000;solid-opacity:1;vector-effect:none;fill:url(#linearGradient913);fill-opacity:1;fill-rule:nonzero;stroke:none;stroke-width:3.15524912;stroke-linecap:round;stroke-linejoin:round;stroke-miterlimit:4;stroke-dasharray:none;stroke-dashoffset:0;stroke-opacity:1;color-rendering:auto;image-rendering:auto;shape-rendering:auto;text-rendering:auto;enable-background:accumulate" />
  </g>
</svg>
